<?xml version="1.0" standalone="no"?>
<!DOCTYPE svg PUBLIC "-//W3C//DTD SVG 20010904//EN"
 "http://www.w3.org/TR/2001/REC-SVG-20010904/DTD/svg10.dtd">
<svg version="1.0" xmlns="http://www.w3.org/2000/svg"
 width="898.000000pt" height="898.000000pt" viewBox="0 0 898.000000 898.000000"
 preserveAspectRatio="xMidYMid meet">
<metadata>
Created by potrace 1.11, written by Peter Selinger 2001-2013
</metadata>
<g transform="translate(0.000000,898.000000) scale(0.100000,-0.100000)"
fill="#000000" stroke="none">
<path d="M0 4490 l0 -4490 580 0 c319 0 580 3 580 6 0 11 -29 34 -43 34 -8 0
-17 6 -20 14 -6 15 45 28 120 31 22 1 49 5 60 9 46 18 242 26 353 15 63 -6
149 -11 190 -11 63 0 469 12 508 14 6 1 12 7 12 14 0 8 6 11 15 8 8 -4 15 -15
15 -25 0 -10 5 -19 11 -19 5 0 8 -4 4 -9 -3 -6 2 -14 10 -19 9 -5 26 -22 37
-38 13 -19 18 -22 14 -9 -6 19 -5 19 8 3 13 -17 180 -18 3270 -18 l3256 0 0
4490 0 4490 -4490 0 -4490 0 0 -4490z m5415 3941 c3 -5 1 -12 -5 -16 -5 -3
-10 1 -10 9 0 18 6 21 15 7z m105 -40 c0 -12 -20 -25 -27 -18 -7 7 6 27 18 27
5 0 9 -4 9 -9z m60 -31 c0 -5 -4 -10 -10 -10 -5 0 -10 5 -10 10 0 6 5 10 10
10 6 0 10 -4 10 -10z m0 -80 c0 -5 -4 -10 -10 -10 -5 0 -10 5 -10 10 0 6 5 10
10 10 6 0 10 -4 10 -10z m80 -140 c0 -5 -4 -10 -9 -10 -6 0 -13 5 -16 10 -3 6
1 10 9 10 9 0 16 -4 16 -10z m-186 -6 c20 -8 21 -24 2 -24 -8 0 -16 7 -20 15
-6 17 -4 18 18 9z m321 -4 c3 -5 -3 -10 -15 -10 -12 0 -18 5 -15 10 3 6 10 10
15 10 5 0 12 -4 15 -10z m133 -17 c-2 -12 -14 -19 -33 -20 -17 -1 -24 0 -17 3
6 3 12 12 12 20 0 8 9 14 21 14 14 0 19 -5 17 -17z m484 2 c0 -5 -5 -11 -11
-13 -6 -2 -11 4 -11 13 0 9 5 15 11 13 6 -2 11 -8 11 -13z m-562 -5 c13 -9 13
-12 -4 -25 -10 -7 -15 -18 -11 -24 3 -6 1 -11 -6 -11 -7 0 -10 -3 -7 -6 4 -3
16 0 28 6 12 6 28 9 37 6 13 -5 13 -9 2 -23 -11 -13 -11 -17 -1 -20 6 -3 10
-9 6 -14 -3 -5 -13 -5 -24 1 -22 12 -39 -5 -21 -23 6 -6 11 -20 11 -32 0 -12
5 -26 11 -32 13 -13 -57 -58 -83 -54 -10 1 -18 -3 -18 -8 0 -6 5 -11 10 -11
20 0 9 -20 -15 -26 -16 -4 -30 0 -40 10 -13 13 -14 16 -2 16 9 0 14 11 14 31
0 25 -4 30 -19 26 -10 -3 -18 -1 -18 4 0 4 -6 6 -14 3 -8 -3 -12 -13 -9 -24 6
-22 -15 -36 -30 -21 -6 6 -24 11 -41 11 l-29 0 26 -23 c15 -12 27 -28 27 -35
0 -7 7 -12 16 -12 8 0 22 -6 30 -14 7 -8 23 -12 34 -9 13 4 20 1 18 -7 -4 -17
33 -39 39 -22 3 6 16 12 29 12 21 0 23 -3 14 -19 -5 -11 -10 -22 -10 -25 0
-11 23 -6 34 8 14 17 76 30 76 15 0 -5 -13 -15 -30 -20 -30 -11 -38 -23 -20
-34 14 -9 1 -32 -21 -38 -12 -3 -19 0 -19 9 0 8 -7 14 -15 14 -8 0 -12 -6 -9
-14 15 -39 -219 -41 -263 -2 -25 22 -39 31 -53 34 -8 2 -24 13 -35 25 -11 13
-32 28 -47 35 -29 12 -36 26 -18 37 22 14 8 26 -24 20 -25 -5 -35 -3 -39 9 -7
16 7 31 22 22 4 -3 6 6 3 19 -2 14 -1 25 2 25 18 0 46 -22 46 -35 0 -9 10 -15
25 -15 35 0 32 30 -5 55 -38 26 -38 44 0 52 24 4 29 10 25 24 -5 14 -1 19 13
19 13 0 21 -9 24 -25 4 -20 1 -26 -18 -31 -46 -12 -20 -35 26 -25 14 3 25 12
25 20 0 20 21 25 28 6 4 -8 2 -15 -3 -15 -6 0 -10 -9 -10 -20 0 -16 -7 -20
-30 -20 l-29 0 22 -23 c17 -19 24 -21 33 -11 6 7 20 11 32 7 18 -4 22 -1 22
16 0 11 5 21 10 21 6 0 10 6 10 14 0 8 12 16 27 18 26 3 38 27 28 57 -4 11
-11 9 -30 -9 -13 -12 -28 -19 -34 -15 -17 10 -13 23 11 31 12 3 31 15 42 25
11 11 30 19 42 19 13 0 30 10 38 22 12 17 19 19 27 11 13 -13 42 -6 33 9 -3 5
3 12 15 15 11 3 23 14 26 24 7 21 14 23 35 9z m-470 -14 c0 -3 -4 -8 -10 -11
-5 -3 -10 -1 -10 4 0 6 5 11 10 11 6 0 10 -2 10 -4z m378 -12 c-9 -9 -21 -13
-27 -9 -16 10 -3 25 22 25 20 0 20 -1 5 -16z m-105 -19 c-8 -22 -22 -18 -16 5
3 11 9 17 14 15 4 -3 6 -12 2 -20z m343 0 c18 -14 18 -14 -8 -15 -27 0 -43 12
-31 24 9 9 17 8 39 -9z m482 3 c18 -18 15 -27 -8 -21 -11 3 -20 12 -20 19 0
17 12 18 28 2z m-856 -50 c-7 -7 -12 -8 -12 -2 0 14 12 26 19 19 2 -3 -1 -11
-7 -17z m393 -28 c3 -5 -1 -10 -9 -10 -9 0 -16 5 -16 10 0 6 4 10 9 10 6 0 13
-4 16 -10z m-40 -20 c-3 -5 -11 -10 -16 -10 -6 0 -7 5 -4 10 3 6 11 10 16 10
6 0 7 -4 4 -10z m-625 -7 c0 -5 -5 -15 -10 -23 -9 -13 -11 -13 -19 0 -5 8 -7
18 -5 22 6 10 34 11 34 1z m617 -35 c-30 -24 -61 -24 -48 0 5 10 21 17 40 17
l31 0 -23 -17z m127 -13 c15 -23 15 -25 -1 -25 -10 0 -24 4 -32 9 -12 8 -12
11 0 25 8 8 15 15 15 16 1 0 9 -11 18 -25z m-939 6 c3 -5 1 -12 -5 -16 -5 -3
-10 1 -10 9 0 18 6 21 15 7z m155 -62 c0 -10 -4 -19 -9 -19 -12 0 -23 29 -15
41 8 14 24 0 24 -22z m689 2 c-15 -5 -22 6 -14 19 6 9 10 9 16 -1 5 -8 4 -15
-2 -18z m-785 4 c-4 -9 0 -15 10 -15 22 0 20 -12 -4 -33 -16 -13 -25 -15 -40
-7 -26 14 -25 28 3 33 15 3 11 5 -12 6 -33 1 -34 2 -15 16 26 20 65 20 58 0z
m712 -20 l46 -25 -27 -10 c-30 -11 -45 -6 -45 16 0 8 -7 14 -15 14 -8 0 -15
-9 -15 -20 0 -13 -7 -20 -19 -20 -54 0 -60 29 -12 55 34 19 33 19 87 -10z
m229 -5 c3 -5 1 -10 -4 -10 -6 0 -11 -7 -11 -15 0 -8 -7 -15 -15 -15 -18 0
-19 4 -3 30 14 22 24 25 33 10z m-874 -42 c0 -7 2 -22 4 -32 4 -20 -29 -57
-49 -55 -6 0 -26 18 -45 40 -29 35 -31 39 -13 39 11 0 22 -7 26 -15 6 -17 46
-21 46 -5 0 6 -7 13 -15 16 -25 10 -17 24 15 24 17 0 30 -5 31 -12z m730 -32
c-7 -17 -18 -26 -32 -26 -21 0 -20 1 7 28 16 16 30 28 32 27 1 -1 -2 -14 -7
-29z m264 14 c3 -5 -3 -10 -15 -10 -12 0 -18 5 -15 10 3 6 10 10 15 10 5 0 12
-4 15 -10z m-125 -20 c0 -5 -4 -10 -10 -10 -5 0 -10 5 -10 10 0 6 5 10 10 10
6 0 10 -4 10 -10z m-1433 -25 c3 -9 3 -19 -1 -22 -8 -9 -37 18 -30 28 8 14 24
11 31 -6z m1501 3 c-3 -7 -11 -13 -18 -13 -7 0 -15 6 -17 13 -3 7 4 12 17 12
13 0 20 -5 18 -12z m-1358 -12 c0 -2 -9 -6 -20 -9 -11 -3 -18 -1 -14 4 5 9 34
13 34 5z m515 -33 c0 -16 -4 -33 -8 -40 -11 -17 31 -39 46 -24 8 8 8 11 -2 11
-7 0 -10 4 -7 9 4 5 1 11 -6 13 -6 2 -12 11 -14 19 -2 19 40 14 57 -7 6 -8 21
-14 34 -14 12 0 30 -9 39 -19 9 -10 25 -17 34 -15 9 3 33 -4 54 -14 35 -18 36
-19 17 -35 -44 -38 -211 2 -271 64 -34 35 -35 52 -5 67 32 15 33 15 32 -15z
m735 15 c0 -6 -3 -9 -6 -5 -3 3 -18 -5 -32 -19 -26 -23 -62 -33 -62 -16 0 8
78 52 93 52 4 0 7 -5 7 -12z m450 -4 c0 -14 -3 -14 -15 -4 -8 7 -15 14 -15 16
0 2 7 4 15 4 8 0 15 -7 15 -16z m-598 -9 c0 -5 -5 -11 -11 -13 -6 -2 -11 4
-11 13 0 9 5 15 11 13 6 -2 11 -8 11 -13z m-975 -11 c3 -8 1 -20 -6 -27 -14
-14 -47 15 -37 32 10 16 36 13 43 -5z m1619 -11 c-10 -10 -19 5 -10 18 6 11 8
11 12 0 2 -7 1 -15 -2 -18z m-1511 7 c3 -5 1 -10 -4 -10 -6 0 -11 5 -11 10 0
6 2 10 4 10 3 0 8 -4 11 -10z m1060 -2 c22 -10 24 -16 19 -44 -5 -30 -3 -33
25 -39 17 -3 34 -11 37 -17 10 -15 -20 -40 -39 -32 -19 7 -23 24 -5 24 19 0 3
10 -32 20 -26 7 -31 7 -22 -2 16 -16 15 -36 -3 -40 -10 -2 -12 -8 -6 -17 5 -8
28 -14 57 -15 42 -1 49 -4 49 -21 0 -16 -6 -19 -29 -17 -18 2 -33 -3 -42 -15
-21 -28 -17 -32 24 -22 70 16 86 6 53 -35 -8 -9 -9 -16 -3 -16 10 0 32 -52 32
-74 -1 -21 -39 -58 -52 -50 -7 5 -23 7 -35 5 -18 -2 -23 3 -23 18 0 17 4 20
23 16 16 -4 29 0 42 14 22 26 16 35 -16 23 -13 -5 -32 -8 -41 -7 -11 2 -15 -2
-11 -11 3 -9 -6 -19 -24 -27 -36 -15 -32 -37 7 -37 19 0 33 -7 40 -20 13 -24
6 -40 -19 -40 -9 0 -28 -10 -41 -22 -14 -13 -26 -22 -27 -20 -10 9 -43 -1 -43
-13 0 -9 9 -15 24 -15 13 0 29 7 36 15 7 8 19 15 26 15 8 0 14 5 14 10 0 14
44 12 58 -2 10 -10 15 -10 22 2 13 20 12 30 -1 30 -5 0 -7 5 -4 10 3 6 15 10
25 10 14 0 18 6 14 25 -3 18 0 25 11 25 8 0 15 -7 15 -15 0 -8 5 -15 11 -15 7
0 9 10 7 24 -5 26 7 36 44 36 12 0 18 3 14 8 -4 4 -16 7 -27 7 -30 0 -17 20
16 22 75 7 89 10 93 21 5 15 32 15 67 2 22 -8 25 -13 16 -24 -14 -17 2 -31 22
-19 6 4 25 8 40 8 23 0 27 -3 23 -20 -3 -11 -6 -28 -6 -38 0 -13 -6 -18 -22
-16 -13 2 -30 -1 -38 -6 -8 -5 -27 -8 -43 -7 -17 2 -26 -2 -22 -7 7 -13 -44
-26 -85 -22 -12 1 -12 3 -2 10 11 6 9 9 -7 14 -11 3 -20 2 -19 -2 3 -25 -6
-31 -44 -31 -36 0 -45 -4 -54 -25 -9 -19 -9 -27 2 -36 8 -6 11 -15 8 -20 -3
-5 2 -9 10 -9 9 0 16 -7 16 -15 0 -10 -10 -15 -29 -15 -16 0 -34 -7 -41 -15
-7 -8 -19 -15 -28 -15 -8 0 -24 -7 -33 -16 -16 -14 -23 -15 -48 -4 -16 6 -39
9 -50 5 -24 -7 -76 18 -91 44 -15 29 -13 31 21 31 17 0 28 4 24 10 -3 6 -15
10 -26 10 -10 0 -29 6 -40 13 -18 10 -23 9 -43 -15 -26 -33 -33 -34 -56 -8
-17 20 -109 70 -129 70 -24 0 -9 -20 29 -36 40 -18 46 -40 7 -28 -19 6 -20 5
-8 -10 7 -9 23 -16 35 -16 11 0 28 -4 36 -10 23 -15 -16 -25 -46 -12 -15 7
-24 8 -24 2 0 -6 -8 -10 -17 -10 -10 -1 -1 -9 21 -19 21 -10 41 -23 45 -30 12
-19 40 -2 34 20 -4 15 0 19 21 19 30 0 35 -15 9 -25 -17 -6 -17 -7 0 -16 9 -6
25 -9 35 -8 31 3 42 -1 40 -13 -2 -7 7 -14 20 -16 12 -2 22 0 22 5 0 13 49 14
71 2 11 -5 17 -14 14 -18 -2 -5 6 -16 19 -25 16 -10 23 -22 19 -34 -4 -16 2
-21 29 -26 20 -4 35 -12 35 -21 0 -7 -3 -14 -6 -13 -3 0 -17 0 -31 -1 -22 -1
-23 -3 -8 -12 10 -5 24 -9 30 -8 28 3 48 -2 48 -12 0 -7 -10 -9 -25 -5 -14 4
-25 4 -25 1 0 -9 59 -35 81 -35 l23 0 -21 -19 c-12 -12 -29 -18 -41 -14 -11 2
-22 1 -26 -5 -10 -17 100 -64 153 -65 45 -1 49 -3 40 -19 -8 -15 -14 -16 -30
-8 -11 6 -29 8 -39 5 -12 -4 -20 -2 -20 5 0 7 -7 9 -16 6 -8 -3 -26 1 -40 10
-21 14 -24 14 -24 1 0 -9 14 -17 36 -22 20 -3 44 -10 53 -15 9 -5 30 -12 46
-16 26 -5 28 -7 10 -14 -11 -4 -32 -4 -46 0 -14 4 -34 3 -44 -2 -10 -6 -40 -8
-66 -5 -29 4 -49 2 -49 -3 0 -6 -9 -1 -21 11 -14 14 -28 19 -42 15 -12 -3 -35
-6 -51 -6 -42 0 -26 -10 24 -15 24 -3 46 -8 49 -11 3 -4 -7 -4 -23 -1 -39 7
-63 -2 -44 -15 9 -7 5 -8 -12 -3 -66 18 -73 18 -82 1 -6 -11 -16 -15 -29 -11
-13 5 -19 2 -19 -9 0 -14 -3 -14 -20 -4 -21 14 -35 6 -27 -15 7 -18 94 -21
150 -6 25 7 42 7 46 1 3 -5 21 -13 39 -17 17 -3 32 -13 32 -21 0 -8 15 -16 40
-20 22 -4 40 -10 40 -14 0 -12 -32 -22 -39 -13 -3 4 -28 19 -56 33 -27 14 -54
31 -60 37 -7 9 -14 10 -25 2 -11 -8 -12 -12 -2 -16 6 -2 12 -8 12 -13 0 -15
-30 -19 -55 -8 -19 9 -28 9 -37 0 -9 -9 -4 -12 20 -12 32 0 43 -14 20 -23 -8
-3 -6 -6 5 -6 9 -1 17 -9 18 -18 0 -10 2 -28 3 -40 3 -23 -26 -43 -32 -24 -2
6 -13 11 -25 11 -12 0 -17 -4 -12 -8 6 -4 11 -12 12 -18 3 -13 -34 -7 -43 7
-3 5 -12 9 -20 9 -12 0 -13 -4 -4 -21 7 -11 10 -22 8 -24 -2 -2 -30 6 -63 16
-33 11 -68 17 -79 15 -10 -3 -29 0 -43 5 l-26 9 24 21 c13 11 30 17 38 13 9
-3 31 -8 49 -11 18 -3 35 -10 38 -14 10 -16 34 -9 34 10 0 12 -9 21 -25 25
-13 3 -32 15 -42 25 -20 20 -130 58 -140 48 -13 -13 18 -33 45 -29 16 2 33 -2
40 -10 9 -12 4 -14 -33 -13 -24 1 -42 -2 -39 -7 3 -4 0 -8 -6 -8 -11 0 -28 12
-60 43 -13 14 -23 16 -36 9 -10 -6 -29 -6 -47 -1 -20 6 -35 5 -44 -2 -7 -6
-19 -9 -27 -6 -8 3 -28 2 -45 -3 -21 -6 -33 -5 -41 5 -8 9 -8 15 0 20 6 3 8
10 5 15 -3 4 2 13 10 20 23 19 18 31 -12 24 -22 -6 -25 -4 -20 9 6 17 -31 51
-49 45 -5 -2 -10 2 -11 7 -1 6 11 9 27 8 36 -4 48 13 16 21 -15 4 -26 15 -28
29 -2 14 -11 23 -25 25 -17 2 -23 10 -23 27 0 28 -14 39 -38 30 -29 -13 -72
-11 -77 3 -8 22 6 35 18 18 10 -12 15 -13 28 -3 38 29 23 100 -17 80 -25 -13
-44 -6 -44 17 0 24 15 33 37 22 20 -10 43 -5 43 9 0 5 -14 9 -31 9 -37 0 -64
14 -73 36 -6 17 2 17 98 -2 25 -5 28 -4 22 11 -3 10 -1 23 4 31 14 16 -19 37
-39 25 -20 -13 -55 -1 -74 25 -32 43 -29 88 3 49 8 -9 21 -13 36 -9 15 4 24 2
24 -5 0 -6 -5 -11 -12 -11 -9 0 -9 -3 -1 -11 13 -13 66 -22 59 -10 -3 4 -1 13
4 21 6 10 0 19 -21 32 -17 10 -28 22 -24 27 3 5 1 20 -4 32 -5 15 -4 30 3 41
14 23 2 32 -24 18 -18 -9 -25 -8 -41 6 -10 9 -19 23 -19 31 0 7 -8 13 -18 13
-11 0 -18 -7 -18 -20 0 -11 3 -20 7 -20 4 0 9 -9 12 -20 3 -11 2 -20 -3 -20
-4 0 -11 -7 -14 -16 -5 -12 0 -15 25 -12 25 2 33 -2 40 -19 8 -22 8 -22 -39
-8 -25 8 -54 24 -63 36 -9 12 -21 19 -28 15 -6 -4 -11 -1 -11 9 0 9 -5 13 -10
10 -6 -4 -8 -11 -5 -16 4 -5 1 -9 -5 -9 -6 0 -9 -4 -6 -9 4 -5 -3 -7 -15 -4
-12 3 -27 19 -33 34 -12 27 -13 28 -26 9 -14 -19 -14 -19 -28 1 -7 11 -11 26
-9 34 3 7 -3 21 -14 31 -13 12 -19 13 -19 4 0 -7 -11 -1 -25 14 -14 15 -25 29
-25 31 0 3 20 2 44 -1 48 -7 66 6 39 27 -9 8 -18 13 -20 12 -16 -12 -33 1 -33
25 0 17 -8 32 -21 40 -11 7 -18 18 -16 25 2 7 1 21 -3 32 -6 16 -4 21 11 21
10 0 19 -6 19 -13 0 -7 5 -13 11 -13 5 0 8 -4 5 -9 -3 -5 1 -14 10 -21 8 -7
13 -19 10 -26 -3 -8 1 -20 9 -28 8 -7 11 -17 7 -20 -3 -4 1 -4 11 0 12 4 14
10 8 18 -5 6 -10 22 -10 36 0 14 -2 39 -4 55 -4 41 10 70 28 55 9 -8 15 -8 20
0 11 17 43 11 50 -10 8 -27 -3 -43 -26 -37 -12 3 -19 0 -19 -9 0 -8 10 -14 24
-14 13 0 26 -7 30 -15 3 -8 12 -15 20 -15 16 0 16 -35 1 -72 -5 -13 0 -21 19
-29 36 -17 55 0 37 34 -7 13 -11 27 -10 33 5 16 -11 52 -26 58 -11 4 -15 21
-15 61 0 30 -4 55 -8 55 -16 0 -11 40 6 41 11 0 13 2 4 6 -16 6 3 33 23 33 18
0 41 -30 29 -38 -6 -4 -14 -16 -17 -26 -7 -16 -5 -17 9 -6 12 11 17 11 23 1 4
-6 19 -13 32 -14 13 0 27 -6 31 -11 5 -7 18 -5 38 7 30 18 31 18 50 -5 11 -13
19 -26 20 -30 0 -4 8 -17 17 -28 25 -29 53 -25 66 10 11 30 30 39 42 20 3 -6
18 -7 32 -4 23 6 25 4 21 -17 -4 -23 -2 -24 34 -21 21 3 38 0 38 -6 0 -6 18
-13 40 -17 22 -4 40 -11 40 -16 0 -5 7 -9 15 -9 18 0 18 -5 5 -30 -9 -17 -5
-20 29 -30 40 -11 75 -5 65 11 -3 5 -17 9 -30 9 -29 0 -28 23 0 28 22 5 46
-16 46 -39 0 -10 9 -23 19 -29 27 -14 34 -13 28 4 -7 19 31 32 46 17 6 -6 19
-11 29 -11 26 0 46 -58 25 -71 -6 -4 1 -18 17 -34 15 -14 25 -34 24 -43 -2
-10 5 -18 17 -20 16 -3 18 -1 8 9 -17 17 -16 29 2 29 9 0 15 9 15 24 0 30 10
34 69 26 56 -6 113 1 109 15 -4 12 -52 7 -56 -6 -3 -6 -10 -5 -18 2 -8 6 -25
9 -39 7 -14 -3 -25 -2 -25 3 0 4 -15 11 -34 15 -19 3 -37 13 -40 21 -5 11 2
14 32 11 27 -2 41 2 54 17 10 12 17 15 18 8 0 -7 -5 -13 -11 -13 -6 0 -3 -7 6
-16 8 -9 23 -13 32 -10 9 4 31 2 49 -4 46 -16 66 -1 23 17 -18 7 -38 12 -45 9
-7 -3 -11 5 -10 20 0 13 7 24 14 24 6 0 12 5 12 10 0 6 -5 10 -11 10 -8 0 -7
5 2 16 10 13 10 17 -1 24 -9 5 -20 4 -28 -3 -34 -28 -122 -12 -122 22 0 18 48
12 59 -6 9 -15 12 -16 20 -3 5 8 7 18 4 24 -4 5 4 7 18 3 l24 -6 -25 19 c-18
13 -28 16 -37 8 -7 -6 -20 -8 -28 -4 -13 5 -14 10 -5 27 9 15 15 18 23 10 6
-6 19 -11 28 -11 10 0 19 -6 22 -12 3 -9 8 -10 15 -3 8 7 3 16 -18 30 -40 27
-38 34 11 30 34 -3 45 0 60 18 16 20 16 23 1 30 -11 4 -5 6 14 3 43 -7 78 18
64 45 -12 22 -10 23 25 7z m-1485 -14 c0 -14 -3 -14 -15 -4 -8 7 -15 14 -15
16 0 2 7 4 15 4 8 0 15 -7 15 -16z m142 -17 c4 -6 4 -15 1 -21 -4 -5 1 -7 10
-3 18 7 33 -8 17 -18 -6 -4 -5 -12 5 -21 19 -20 19 -34 0 -34 -9 0 -20 -11
-25 -25 -7 -18 -17 -25 -35 -25 -14 0 -25 5 -25 10 0 10 14 14 39 10 13 -1 13
1 2 14 -12 14 -11 16 3 10 9 -3 16 -1 16 5 0 6 -9 11 -20 11 -11 0 -20 5 -20
10 0 6 9 10 20 10 23 0 24 4 10 31 -7 12 -21 19 -40 19 -29 0 -37 16 -15 32
12 9 47 -1 57 -15z m341 -21 c6 -16 -11 -36 -30 -36 -7 0 -13 5 -13 10 0 6 -9
10 -19 10 -11 0 -22 4 -26 9 -3 6 5 8 19 5 14 -2 28 0 31 6 9 15 32 12 38 -4z
m-205 -7 c-2 -6 -8 -10 -13 -10 -5 0 -11 4 -13 10 -2 6 4 11 13 11 9 0 15 -5
13 -11z m-288 -24 c0 -23 -16 -26 -34 -6 -13 15 -14 20 -4 23 19 7 38 -2 38
-17z m1231 5 c-24 -20 -51 -27 -51 -12 0 16 25 32 50 32 l25 -1 -24 -19z m589
0 c0 -5 -7 -10 -15 -10 -8 0 -15 5 -15 10 0 6 7 10 15 10 8 0 15 -4 15 -10z
m100 -20 c6 -11 15 -18 21 -15 5 4 9 1 9 -5 0 -8 -9 -10 -27 -5 -34 8 -47 20
-39 34 11 17 24 13 36 -9z m-894 -5 c-11 -8 -27 -14 -35 -14 -12 1 -12 2 2 6
9 2 15 9 12 14 -4 5 4 9 17 9 22 -1 22 -1 4 -15z m-1004 -18 c7 -7 21 -16 31
-20 24 -9 16 -33 -9 -29 -24 5 -65 42 -58 53 7 13 21 11 36 -4z m238 -12 c10
-12 10 -15 -3 -15 -8 0 -17 7 -21 15 -3 8 -2 15 3 15 5 0 14 -7 21 -15z m545
-5 c8 -13 -5 -13 -25 0 -13 8 -13 10 2 10 9 0 20 -4 23 -10z m345 -14 c0 -7
-6 -18 -12 -25 -11 -10 -7 -11 16 -5 21 5 27 4 22 -5 -5 -7 -38 -10 -101 -8
-52 2 -92 0 -89 -5 3 -4 -4 -8 -16 -8 -12 0 -18 4 -15 10 6 9 -7 14 -77 25
-21 3 -40 11 -44 17 -9 14 101 1 127 -15 15 -9 21 -8 32 7 12 16 16 17 35 5
18 -12 26 -11 58 8 38 21 64 21 64 -1z m55 14 c-3 -5 -10 -10 -16 -10 -5 0 -9
5 -9 10 0 6 7 10 16 10 8 0 12 -4 9 -10z m605 0 c0 -5 -4 -10 -9 -10 -6 0 -13
5 -16 10 -3 6 1 10 9 10 9 0 16 -4 16 -10z m-1905 -40 c3 -5 2 -10 -4 -10 -5
0 -13 5 -16 10 -3 6 -2 10 4 10 5 0 13 -4 16 -10z m1801 -31 c3 -6 0 -15 -7
-20 -7 -4 -11 -9 -9 -11 3 -2 14 -8 24 -14 22 -12 33 -34 18 -34 -6 0 -17 7
-26 15 -21 21 -43 19 -49 -5 -6 -24 -22 -26 -31 -5 -3 8 -1 15 5 15 6 0 7 5 4
11 -4 6 2 13 13 16 11 2 22 13 25 24 6 21 22 25 33 8z m-626 -13 c0 -9 -7 -12
-21 -9 -16 4 -17 8 -7 14 19 13 28 11 28 -5z m-133 -2 c-3 -3 -12 -4 -19 -1
-8 3 -5 6 6 6 11 1 17 -2 13 -5z m978 -4 c8 -13 -25 -13 -45 0 -12 8 -9 10 12
10 15 0 30 -4 33 -10z m-765 -10 c0 -5 -4 -10 -10 -10 -5 0 -10 5 -10 10 0 6
5 10 10 10 6 0 10 -4 10 -10z m-1155 -20 c3 -5 -3 -10 -14 -10 -12 0 -21 5
-21 10 0 6 6 10 14 10 8 0 18 -4 21 -10z m1841 -15 l29 -15 -32 0 c-23 0 -33
5 -33 15 0 18 1 18 36 0z m-56 -15 c0 -5 -7 -10 -16 -10 -8 0 -12 5 -9 10 3 6
10 10 16 10 5 0 9 -4 9 -10z m-630 -9 c0 -14 -18 -23 -30 -16 -6 4 -8 11 -5
16 8 12 35 12 35 0z m558 -12 c-2 -6 -8 -10 -13 -10 -5 0 -11 4 -13 10 -2 6 4
11 13 11 9 0 15 -5 13 -11z m284 -13 c4 -6 8 -14 8 -18 0 -9 -58 20 -66 33 -8
14 49 -1 58 -15z m-1992 4 c0 -5 -2 -10 -4 -10 -3 0 -8 5 -11 10 -3 6 -1 10 4
10 6 0 11 -4 11 -10z m2190 -30 c0 -5 -4 -10 -10 -10 -5 0 -10 5 -10 10 0 6 5
10 10 10 6 0 10 -4 10 -10z m50 -35 c11 -13 9 -15 -13 -15 -14 0 -27 7 -31 15
-3 10 1 15 13 15 10 0 24 -7 31 -15z m-21 -39 c7 -8 8 -17 3 -19 -4 -3 -13 3
-20 14 -14 22 0 26 17 5z m-119 -27 c0 -5 -4 -9 -9 -9 -5 0 -9 -14 -9 -30 1
-22 4 -28 12 -20 16 16 46 12 46 -6 0 -9 -6 -14 -12 -11 -9 3 -13 -5 -13 -24
0 -18 5 -29 13 -29 19 0 9 -24 -11 -28 -23 -5 -127 47 -127 64 0 8 5 14 10 14
6 0 10 8 8 18 -2 11 3 16 14 14 9 -1 19 2 23 8 3 5 -1 10 -9 10 -9 0 -16 5
-16 10 0 6 11 10 25 10 17 0 23 4 19 14 -4 11 0 13 15 9 12 -3 21 -9 21 -14z
m77 15 c-3 -3 -12 -4 -19 -1 -8 3 -5 6 6 6 11 1 17 -2 13 -5z m-7 -24 c0 -5
-7 -10 -15 -10 -8 0 -15 -4 -15 -10 0 -5 -4 -10 -10 -10 -5 0 -10 9 -10 20 0
15 7 20 25 20 14 0 25 -4 25 -10z m116 -27 c-10 -10 -19 5 -10 18 6 11 8 11
12 0 2 -7 1 -15 -2 -18z m-46 7 c0 -5 -7 -10 -15 -10 -8 0 -15 5 -15 10 0 6 7
10 15 10 8 0 15 -4 15 -10z m-375 -9 c3 -5 1 -12 -5 -16 -5 -3 -10 1 -10 9 0
18 6 21 15 7z m75 -26 c-7 -8 -18 -15 -24 -14 -7 0 -6 2 2 6 6 2 10 9 6 14 -3
5 2 9 12 9 13 0 14 -3 4 -15z m237 9 c-3 -3 -12 -4 -19 -1 -8 3 -5 6 6 6 11 1
17 -2 13 -5z m-460 -12 c19 -12 0 -32 -24 -26 -31 8 -38 34 -10 34 12 0 27 -4
34 -8z m88 -3 c10 -15 -1 -23 -20 -15 -9 3 -13 10 -10 16 8 13 22 13 30 -1z
m93 -23 c2 -24 -29 -47 -36 -27 -2 6 -8 11 -13 11 -6 0 -8 -4 -5 -9 3 -5 -5
-12 -19 -15 -14 -4 -25 -11 -25 -16 0 -5 -7 -7 -15 -4 -21 8 -19 21 5 29 11 4
18 10 15 15 -8 13 16 24 47 22 15 -1 28 2 28 8 0 21 16 9 18 -14z m366 9 c3
-8 2 -15 -3 -15 -5 0 -14 7 -21 15 -10 12 -10 15 3 15 8 0 17 -7 21 -15z
m-494 -15 c10 -18 8 -20 -17 -19 -15 0 -22 3 -15 6 6 2 12 11 12 19 0 20 7 17
20 -6z m210 -40 c-17 -11 -3 -30 22 -30 14 0 18 5 14 15 -9 24 21 18 39 -7 14
-21 14 -23 0 -26 -8 -2 -13 -8 -10 -13 4 -5 -12 -9 -34 -9 -22 0 -43 5 -46 10
-4 6 -10 8 -14 6 -4 -3 -20 -2 -35 2 -27 7 -27 9 -10 22 11 9 15 10 10 3 -4
-8 -1 -13 8 -13 9 0 18 13 22 35 5 31 8 33 26 24 15 -8 17 -13 8 -19z m-1706
-5 c3 -9 0 -15 -9 -15 -9 0 -12 6 -9 15 4 8 7 15 9 15 2 0 5 -7 9 -15z m93
-15 c11 -16 10 -18 -3 -13 -8 3 -23 -2 -34 -12 -10 -9 -24 -14 -29 -10 -17 10
-13 25 8 25 10 0 21 7 25 15 7 20 19 19 33 -5z m913 6 c0 -11 -19 -15 -25 -6
-3 5 1 10 9 10 9 0 16 -2 16 -4z m450 -11 c10 -12 10 -15 -1 -15 -26 0 -59 12
-59 21 0 15 47 10 60 -6z m640 -6 c0 -5 -7 -9 -15 -9 -8 0 -15 7 -15 15 0 9 6
12 15 9 8 -4 15 -10 15 -15z m-750 -4 c0 -8 5 -15 11 -15 8 0 7 -6 -2 -17 -10
-12 -11 -17 -2 -20 7 -2 10 -10 7 -18 -6 -14 -40 -9 -51 8 -3 6 -1 7 5 3 7 -4
12 -3 12 3 0 5 -7 14 -15 18 -13 8 -13 11 1 31 17 25 34 29 34 7z m101 -18
c20 6 25 -12 11 -34 -6 -9 -15 -8 -40 4 -17 8 -32 19 -32 23 0 14 13 19 28 11
8 -5 23 -6 33 -4z m394 3 c3 -5 -3 -10 -15 -10 -12 0 -18 5 -15 10 3 6 10 10
15 10 5 0 12 -4 15 -10z m-249 -36 c-3 -8 -2 -14 3 -14 9 0 61 -43 61 -50 0
-3 -19 -6 -43 -7 -35 -2 -39 -1 -26 10 13 10 14 15 3 24 -10 10 -19 9 -43 -3
-17 -9 -29 -20 -26 -25 4 -5 -13 -9 -37 -9 l-43 0 25 20 c14 10 40 21 58 25
29 5 31 8 17 21 -21 21 -20 22 21 22 26 0 34 -4 30 -14z m-1526 -19 c10 -12 9
-16 -4 -21 -16 -6 -46 11 -46 27 0 15 37 10 50 -6z m1370 1 c0 -3 -4 -8 -10
-11 -5 -3 -10 -1 -10 4 0 6 5 11 10 11 6 0 10 -2 10 -4z m-1243 -12 c-3 -3
-12 -4 -19 -1 -8 3 -5 6 6 6 11 1 17 -2 13 -5z m1027 -9 c3 -9 18 -15 38 -15
19 0 43 -7 54 -15 12 -8 24 -11 28 -8 3 3 6 -3 6 -14 0 -16 5 -20 20 -16 22 6
28 -15 9 -34 -8 -8 -6 -13 9 -17 23 -8 38 -36 19 -36 -8 0 -8 -3 2 -9 9 -6 10
-11 2 -15 -15 -10 -33 3 -25 16 7 10 -12 8 -63 -8 -17 -5 -17 -5 0 6 23 15 21
29 -5 40 -19 7 -20 9 -5 9 29 1 14 26 -17 29 -19 2 -26 8 -22 18 3 8 0 14 -7
14 -7 0 -20 9 -30 20 -9 11 -24 20 -32 20 -8 0 -15 7 -15 15 0 8 6 15 14 15 8
0 16 -7 20 -15z m474 -3 c3 -9 -2 -13 -14 -10 -9 1 -19 9 -22 16 -3 9 2 13 14
10 9 -1 19 -9 22 -16z m265 11 c-7 -2 -19 -2 -25 0 -7 3 -2 5 12 5 14 0 19 -2
13 -5z m-133 -33 c0 -5 -4 -10 -9 -10 -6 0 -13 5 -16 10 -3 6 1 10 9 10 9 0
16 -4 16 -10z m-32 -22 c7 -7 12 -16 12 -20 0 -10 -65 -5 -95 8 -19 8 -19 8 5
15 39 11 65 10 78 -3z m-293 -24 c17 -2 40 1 53 8 17 9 25 9 34 0 9 -9 9 -12
-2 -14 -8 0 -19 -2 -25 -3 -5 -2 -19 -3 -30 -4 -18 -1 -19 -2 -3 -12 20 -11
91 -1 82 12 -3 5 4 9 15 9 12 0 21 5 21 10 0 15 36 12 50 -5 6 -8 9 -19 5 -26
-6 -8 -9 -8 -15 0 -3 7 -14 9 -23 5 -15 -5 -14 -8 5 -23 20 -17 18 -41 -3 -41
-6 0 -8 4 -4 9 9 16 -25 41 -55 41 -20 0 -31 -6 -35 -19 -7 -24 -26 -19 -75
21 -19 15 -40 28 -47 28 -6 0 -15 5 -19 12 -5 8 0 9 17 4 13 -4 38 -9 54 -12z
m340 -14 c3 -5 -1 -10 -9 -10 -9 0 -16 5 -16 10 0 6 4 10 9 10 6 0 13 -4 16
-10z m-377 -17 c-2 -13 3 -17 19 -15 23 3 44 -24 50 -63 3 -19 2 -19 -11 -2
-12 16 -14 16 -20 2 -3 -9 -11 -13 -17 -9 -8 5 -8 9 1 14 8 5 4 9 -10 13 -12
3 -24 15 -27 26 -3 12 -9 21 -14 21 -5 0 -9 7 -9 15 0 8 9 15 20 15 14 0 20
-6 18 -17z m415 -34 c-5 -5 -8 3 -7 19 3 37 6 41 11 13 3 -13 1 -27 -4 -32z
m-1743 21 c0 -5 -7 -10 -15 -10 -8 0 -15 5 -15 10 0 6 7 10 15 10 8 0 15 -4
15 -10z m1710 1 c0 -14 -18 -23 -30 -16 -6 4 -8 11 -5 16 8 12 35 12 35 0z
m96 -26 c18 -15 18 -15 -5 -13 -14 2 -26 9 -29 16 -5 17 10 15 34 -3z m-201
-5 c-3 -5 -16 -10 -28 -10 -18 0 -19 2 -7 10 20 13 43 13 35 0z m-105 -20 c0
-11 -54 -20 -64 -10 -15 15 2 27 34 22 16 -2 30 -8 30 -12z m160 -20 c0 -5 -6
-10 -14 -10 -8 0 -18 5 -21 10 -3 6 3 10 14 10 12 0 21 -4 21 -10z m-1645 -10
c11 -17 -5 -31 -19 -17 -14 12 -12 27 4 27 5 0 12 -4 15 -10z m1435 -9 c0 -5
-9 -7 -20 -4 -11 3 -20 7 -20 9 0 2 9 4 20 4 11 0 20 -4 20 -9z m-240 -21
c-11 -7 -11 -10 -2 -10 7 0 10 -4 7 -10 -3 -5 -18 -10 -33 -10 l-27 1 24 19
c13 11 28 20 35 20 6 0 4 -5 -4 -10z m118 -13 c8 -10 5 -13 -14 -15 -25 -2
-33 13 -11 21 6 3 13 6 13 6 1 1 6 -5 12 -12z m107 -7 c3 -5 1 -10 -4 -10 -6
0 -11 5 -11 10 0 6 2 10 4 10 3 0 8 -4 11 -10z m105 -10 c8 -5 11 -10 5 -10
-5 0 -17 5 -25 10 -8 5 -10 10 -5 10 6 0 17 -5 25 -10z m-179 -30 c5 0 9 -4 9
-10 0 -16 -26 -12 -41 7 -12 15 -12 16 4 10 10 -4 23 -7 28 -7z m-1193 -48 c2
-6 -6 -10 -17 -9 -22 1 -26 8 -14 21 9 9 26 3 31 -12z m1315 -9 c-7 -2 -19 -2
-25 0 -7 3 -2 5 12 5 14 0 19 -2 13 -5z m37 -3 c0 -5 -4 -10 -10 -10 -5 0 -10
5 -10 10 0 6 5 10 10 10 6 0 10 -4 10 -10z m-177 -26 c11 -11 -3 -24 -18 -18
-8 4 -12 10 -9 15 6 11 18 12 27 3z m447 -14 c0 -5 -4 -10 -10 -10 -5 0 -10 5
-10 10 0 6 5 10 10 10 6 0 10 -4 10 -10z m-571 -39 c-13 -11 -31 -18 -39 -15
-33 13 -92 24 -101 19 -5 -4 -9 -2 -9 3 0 6 21 10 48 11 26 0 61 5 77 9 41 13
54 -2 24 -27z m186 29 c3 -5 -3 -10 -14 -10 -11 0 -23 5 -26 10 -3 6 3 10 14
10 11 0 23 -4 26 -10z m-40 -50 c4 -6 10 -8 16 -5 13 9 79 -6 79 -17 0 -6 -9
-8 -20 -5 -11 3 -22 1 -25 -4 -5 -7 -85 27 -85 37 0 9 29 3 35 -6z m-195 -21
c10 -5 -6 -9 -42 -9 -54 0 -83 12 -56 23 16 7 78 -3 98 -14z m483 -6 c-7 -2
-19 -2 -25 0 -7 3 -2 5 12 5 14 0 19 -2 13 -5z m-353 -13 c0 -5 -4 -10 -10
-10 -5 0 -10 5 -10 10 0 6 5 10 10 10 6 0 10 -4 10 -10z m-114 -20 c8 0 14 -4
14 -10 0 -16 -36 -11 -51 7 -12 15 -12 16 4 10 10 -4 25 -7 33 -7z m-166 -12
c8 0 30 -6 48 -14 18 -8 37 -12 43 -9 5 4 15 2 22 -4 7 -5 18 -6 25 -2 15 9
72 2 72 -10 0 -6 -82 -6 -100 0 -3 2 -43 2 -88 1 -51 -1 -82 2 -78 8 3 5 -4
13 -17 17 l-22 7 25 8 c14 4 32 6 40 3 8 -3 22 -5 30 -5z m227 6 c-3 -3 -12
-4 -19 -1 -8 3 -5 6 6 6 11 1 17 -2 13 -5z m-820 -60 c-7 -7 -57 7 -57 16 0
15 55 16 58 2 2 -8 2 -16 -1 -18z m-117 16 c0 -5 -2 -10 -4 -10 -3 0 -8 5 -11
10 -3 6 -1 10 4 10 6 0 11 -4 11 -10z m1105 0 c-3 -5 -11 -10 -16 -10 -6 0 -7
5 -4 10 3 6 11 10 16 10 6 0 7 -4 4 -10z m-120 -20 c3 -5 1 -10 -4 -10 -6 0
-11 5 -11 10 0 6 2 10 4 10 3 0 8 -4 11 -10z m-1995 -15 c11 -13 8 -15 -15
-15 -23 0 -26 2 -15 15 7 8 14 15 15 15 1 0 8 -7 15 -15z m1779 -1 c2 -2 2 -6
-1 -9 -9 -10 -58 6 -52 16 5 9 41 3 53 -7z m94 -3 c19 -19 -10 -18 -43 0 l-35
20 35 -6 c19 -3 38 -9 43 -14z m-593 -1 c0 -5 -4 -10 -10 -10 -5 0 -10 5 -10
10 0 6 5 10 10 10 6 0 10 -4 10 -10z m675 1 c10 -17 -12 -21 -25 -6 -10 12
-10 15 3 15 9 0 18 -4 22 -9z m-1857 -19 c2 -7 -3 -12 -12 -12 -9 0 -16 7 -16
16 0 17 22 14 28 -4z m1572 -2 c0 -5 -12 -10 -27 -10 -22 0 -25 2 -13 10 20
13 40 13 40 0z m-1790 -10 c5 0 11 -8 14 -18 5 -16 80 -62 100 -62 3 0 6 9 6
20 0 14 7 20 21 20 11 0 17 -4 14 -10 -3 -5 1 -10 9 -10 8 0 18 5 21 10 11 17
23 2 18 -24 -3 -16 3 -30 18 -45 27 -25 40 -19 16 7 -19 20 -23 62 -7 62 6 0
10 9 10 20 0 12 5 17 14 14 8 -3 13 -16 11 -29 -2 -20 3 -25 36 -30 20 -4 45
-15 55 -26 10 -11 30 -19 48 -19 34 0 59 -12 55 -26 -1 -5 15 -17 35 -27 20
-9 36 -21 36 -26 0 -5 13 -14 29 -21 16 -6 32 -19 35 -27 5 -12 9 -13 20 -4
16 13 63 5 86 -14 17 -15 77 -30 102 -26 9 1 22 -7 28 -18 7 -15 7 -21 0 -21
-12 0 -35 -49 -39 -81 0 -6 -8 -9 -15 -6 -10 4 -13 1 -9 -9 7 -18 22 -18 29 1
7 17 40 20 49 5 4 -6 16 -8 27 -5 25 9 71 -3 63 -15 -3 -6 -15 -6 -31 0 -14 6
-23 6 -20 1 4 -5 0 -11 -6 -14 -7 -2 2 -11 20 -18 l34 -14 -22 -28 c-17 -21
-20 -31 -11 -40 8 -8 15 -6 25 9 14 18 16 18 32 2 18 -18 18 -18 -26 -30 -10
-3 0 -14 28 -33 23 -15 42 -32 42 -37 0 -5 6 -6 13 -3 6 4 4 0 -6 -9 -22 -17
-47 -11 -47 11 0 12 -7 14 -31 9 -27 -5 -30 -4 -19 9 10 12 9 16 -5 21 -9 4
-21 2 -27 -4 -11 -11 -45 2 -60 23 -4 5 -11 6 -15 1 -4 -4 0 -14 10 -21 12 -9
17 -20 13 -33 -5 -15 -1 -21 19 -26 14 -4 25 -11 25 -16 0 -6 9 -10 20 -10 11
0 20 -4 20 -10 0 -5 -15 -10 -34 -10 -22 0 -36 -6 -40 -16 -11 -29 -7 -42 13
-37 10 3 22 0 25 -5 10 -17 -22 -41 -46 -35 -22 4 -22 4 2 -10 17 -9 29 -10
38 -4 8 7 12 5 12 -7 0 -9 -10 -21 -22 -26 -16 -6 -18 -9 -7 -9 9 -1 19 -7 22
-15 9 -23 -25 -25 -50 -3 -12 11 -27 16 -34 12 -8 -6 -4 -12 15 -22 53 -28 17
-80 -48 -70 -17 2 -40 1 -51 -3 -14 -5 -6 -7 24 -7 27 0 47 -6 52 -14 4 -8 15
-23 23 -34 14 -17 17 -18 26 -5 9 13 11 13 20 0 14 -22 -42 -26 -75 -4 -30 19
-40 14 -30 -16 5 -15 12 -19 27 -14 15 4 19 2 16 -7 -3 -8 -15 -14 -27 -13
-20 1 -20 -1 -5 -17 16 -17 16 -19 0 -25 -9 -3 -22 -4 -29 -1 -7 3 -21 -1 -32
-9 -17 -13 -18 -15 -2 -26 18 -14 18 -38 -1 -61 -11 -12 -18 -13 -50 -2 -28
10 -40 10 -51 2 -12 -9 -13 -9 -7 1 4 7 1 12 -8 12 -18 0 -21 -15 -7 -25 6 -3
8 -15 6 -27 -6 -29 -15 -35 -15 -9 0 16 -8 23 -32 28 -18 4 -36 6 -40 5 -5 -1
-9 13 -9 31 -1 17 -3 24 -6 15 -8 -33 -31 -19 -38 22 -5 29 -14 44 -33 55 -19
11 -22 15 -8 13 10 -2 21 3 23 10 3 6 0 12 -6 12 -18 0 -51 38 -38 44 10 4
-44 10 -65 8 -3 -1 -12 5 -19 14 -10 13 -9 16 10 21 17 4 19 8 10 19 -9 11 -8
14 4 14 9 0 21 9 27 21 9 16 18 19 36 15 14 -4 24 -2 24 4 0 5 -5 10 -11 10
-19 0 -48 40 -42 57 4 9 -2 22 -13 30 -10 8 -18 17 -18 21 1 4 -2 6 -8 4 -5
-1 -18 4 -28 11 -17 12 -17 14 12 26 26 12 28 15 14 23 -10 6 -16 22 -16 45 0
39 -11 39 -15 1 -4 -38 -5 -39 -16 -32 -6 3 -9 15 -6 25 3 11 2 19 -1 19 -4 0
-15 12 -25 25 -17 24 -17 24 0 19 17 -5 17 -5 0 9 -10 8 -19 25 -20 37 -1 13
-11 26 -24 31 -13 5 -23 13 -23 19 0 5 -8 10 -18 10 -18 0 -62 31 -62 44 0 12
35 46 47 46 15 0 13 -21 -2 -32 -6 -5 -3 -8 7 -8 9 0 24 -7 33 -16 9 -9 18
-14 21 -11 9 9 -16 47 -31 47 -11 0 -12 6 -6 23 7 19 6 23 -10 23 -10 0 -19
-4 -19 -8 0 -16 -30 -7 -61 19 l-32 27 32 9 c24 6 39 4 57 -8 14 -9 29 -13 33
-10 5 3 13 -9 16 -27 l7 -32 18 33 c15 31 18 32 31 17 32 -38 41 -46 51 -46 6
0 6 6 -2 15 -7 9 -10 18 -7 22 4 3 -5 17 -19 30 -14 12 -22 28 -19 33 8 14 -8
13 -22 -1 -18 -18 -74 11 -67 33 3 10 1 18 -5 18 -6 0 -11 -6 -11 -14 0 -7 -7
-19 -15 -26 -19 -16 -49 12 -42 39 2 11 -4 26 -15 35 -22 19 -45 12 -28 -9 9
-11 6 -13 -13 -11 -36 4 -52 16 -36 27 10 6 8 9 -8 9 -20 0 -23 5 -23 41 0 32
4 42 20 46 26 7 35 5 35 -7 0 -10 15 -15 15 -5 0 3 -7 22 -15 42 -17 40 -13
52 10 33 10 -8 15 -9 15 -1 0 6 -3 11 -8 11 -4 0 -13 14 -20 30 -8 17 -20 30
-28 30 -9 0 -12 5 -9 11 4 6 14 8 22 5 8 -3 18 -6 23 -6z m112 -33 c-16 -7
-26 -7 -35 2 -18 18 11 33 37 19 20 -11 20 -11 -2 -21z m1875 7 c-9 -9 -28 6
-21 18 4 6 10 6 17 -1 6 -6 8 -13 4 -17z m208 16 c3 -5 1 -10 -4 -10 -6 0 -11
5 -11 10 0 6 2 10 4 10 3 0 8 -4 11 -10z m-297 -20 c-13 -21 -29 -22 -35 -3
-4 10 11 17 40 22 4 0 2 -8 -5 -19z m156 -1 c-7 -11 -41 -12 -48 0 -9 13 2 19
29 13 14 -2 22 -8 19 -13z m-524 -4 c42 -3 46 -5 31 -14 -10 -6 2 -9 35 -9 27
0 54 4 59 9 15 11 78 15 94 5 9 -6 10 -11 2 -19 -7 -7 -14 -7 -24 1 -14 12
-59 12 -67 0 -4 -4 -24 -9 -45 -10 -22 -2 -43 -6 -46 -11 -15 -21 -97 -25
-143 -7 -45 17 -19 35 30 21 49 -14 67 -14 59 -1 -3 6 -21 10 -39 10 -21 0
-40 8 -52 21 l-19 22 50 -8 c28 -4 61 -8 75 -10z m434 -26 c-3 -5 -18 -8 -34
-7 -20 2 -26 6 -20 14 6 6 7 14 3 18 -4 3 8 1 25 -5 18 -6 29 -15 26 -20z
m-1294 -15 c0 -8 -7 -14 -15 -14 -8 0 -15 9 -15 20 0 13 5 18 15 14 8 -4 15
-12 15 -20z m1355 16 c4 -6 -5 -10 -19 -10 -14 0 -26 5 -26 10 0 6 9 10 19 10
11 0 23 -4 26 -10z m123 -9 c2 -6 -2 -11 -10 -11 -25 0 -58 12 -58 21 0 13 63
4 68 -10z m-1748 0 c0 -12 -20 -25 -27 -18 -7 7 6 27 18 27 5 0 9 -4 9 -9z
m953 2 c-7 -2 -21 -2 -30 0 -10 3 -4 5 12 5 17 0 24 -2 18 -5z m837 -3 c0 -5
-5 -10 -11 -10 -5 0 -7 5 -4 10 3 6 8 10 11 10 2 0 4 -4 4 -10z m-480 -21 c0
-5 -7 -9 -15 -9 -8 0 -15 7 -15 15 0 9 6 12 15 9 8 -4 15 -10 15 -15z m-1218
-12 c4 -6 4 -15 1 -20 -3 -4 3 -15 13 -22 11 -8 14 -15 7 -15 -6 0 -15 5 -18
10 -4 6 -11 7 -17 4 -7 -5 -9 -1 -5 9 5 13 -3 19 -34 27 -50 14 -42 35 10 25
20 -4 39 -12 43 -18z m1378 13 c0 -5 -6 -10 -14 -10 -8 0 -18 5 -21 10 -3 6 3
10 14 10 12 0 21 -4 21 -10z m119 -9 c11 -1 11 -4 1 -16 -9 -11 -17 -12 -32
-4 -11 6 -26 8 -33 5 -8 -3 -12 0 -9 7 2 7 17 12 32 11 15 -1 33 -3 41 -3z
m-359 -16 c9 -10 9 -15 1 -15 -6 0 -11 4 -11 9 0 5 -8 12 -17 14 -15 4 -15 5
-2 6 9 0 22 -6 29 -14z m186 -5 c0 -24 -3 -25 -22 -6 -19 19 -18 26 4 26 11 0
18 -7 18 -20z m262 -2 c-3 -7 -13 -15 -23 -16 -15 -4 -16 -2 -4 12 17 19 32
21 27 4z m-518 -2 c0 -11 -19 -15 -25 -6 -3 5 1 10 9 10 9 0 16 -2 16 -4z
m-952 -30 c16 -15 15 -16 -18 -9 -19 3 -41 12 -48 20 -11 11 -8 12 18 10 17
-2 39 -11 48 -21z m882 14 c0 -5 -6 -10 -14 -10 -8 0 -18 5 -21 10 -3 6 3 10
14 10 12 0 21 -4 21 -10z m-802 -17 c2 -8 -6 -13 -22 -13 -19 0 -24 4 -19 15
6 18 34 16 41 -2z m1417 7 c3 -5 -1 -10 -9 -10 -9 0 -16 5 -16 10 0 6 4 10 9
10 6 0 13 -4 16 -10z m-388 -6 c-3 -3 -12 -4 -19 -1 -8 3 -5 6 6 6 11 1 17 -2
13 -5z m-866 -17 c-1 -12 -15 -9 -19 4 -3 6 1 10 8 8 6 -3 11 -8 11 -12z
m-271 -12 c0 -8 -6 -15 -14 -15 -17 0 -28 14 -19 24 12 12 33 6 33 -9z m180 0
c10 -12 9 -16 -4 -21 -18 -7 -49 13 -40 27 8 14 30 11 44 -6z m1060 5 c0 -5
-2 -10 -4 -10 -3 0 -8 5 -11 10 -3 6 -1 10 4 10 6 0 11 -4 11 -10z m207 4 c-3
-3 -12 -4 -19 -1 -8 3 -5 6 6 6 11 1 17 -2 13 -5z m-440 -10 c-3 -3 -12 -4
-19 -1 -8 3 -5 6 6 6 11 1 17 -2 13 -5z m130 -13 c12 -18 10 -19 -25 -14 -44
7 -46 8 -37 22 10 18 49 12 62 -8z m-1084 -11 c3 -12 0 -20 -8 -20 -16 0 -37
25 -28 33 13 13 31 7 36 -13z m54 -6 c-9 -9 -28 6 -21 18 4 6 10 6 17 -1 6 -6
8 -13 4 -17z m828 14 c39 -10 55 -22 55 -43 -1 -5 -6 -3 -13 6 -7 9 -34 20
-62 24 -72 12 -76 13 -83 20 -9 8 56 4 103 -7z m-695 -8 c0 -5 -6 -10 -14 -10
-8 0 -18 5 -21 10 -3 6 3 10 14 10 12 0 21 -4 21 -10z m50 -21 c0 -5 -4 -9
-10 -9 -5 0 -10 7 -10 16 0 8 5 12 10 9 6 -3 10 -10 10 -16z m-130 1 c0 -5 -4
-10 -10 -10 -5 0 -10 5 -10 10 0 6 5 10 10 10 6 0 10 -4 10 -10z m934 -14 c11
-1 22 -8 24 -14 4 -14 -24 -16 -33 -3 -3 6 -18 6 -37 0 -37 -10 -45 -6 -27 15
8 10 22 14 34 10 11 -3 29 -7 39 -8z m-154 -26 c0 -5 -6 -10 -14 -10 -8 0 -18
5 -21 10 -3 6 3 10 14 10 12 0 21 -4 21 -10z m254 -11 c-3 -5 -10 -7 -15 -3
-5 3 -7 10 -3 15 3 5 10 7 15 3 5 -3 7 -10 3 -15z m331 11 c3 -5 -1 -10 -9
-10 -9 0 -16 5 -16 10 0 6 4 10 9 10 6 0 13 -4 16 -10z m-190 -40 c-3 -5 -12
-10 -20 -10 -8 0 -17 5 -20 10 -4 6 5 10 20 10 15 0 24 -4 20 -10z m-356 -16
c10 -9 -6 -12 -31 -7 -15 3 -25 9 -22 15 5 8 41 2 53 -8z m188 10 c-3 -3 -12
-4 -19 -1 -8 3 -5 6 6 6 11 1 17 -2 13 -5z m378 -11 c18 -14 18 -15 2 -9 -10
3 -27 6 -38 6 -10 0 -19 5 -19 10 0 15 33 11 55 -7z m115 7 c0 -5 -4 -10 -10
-10 -5 0 -10 5 -10 10 0 6 5 10 10 10 6 0 10 -4 10 -10z m-1405 -49 c3 -5 1
-12 -5 -16 -5 -3 -10 1 -10 9 0 18 6 21 15 7z m75 -21 c0 -10 -26 -20 -34 -13
-14 14 -5 31 14 26 11 -3 20 -9 20 -13z m-852 -52 c7 -7 12 -16 12 -20 0 -15
-15 -8 -28 12 -13 22 -3 27 16 8z m116 -126 c2 -4 1 -14 -4 -22 -7 -11 -12
-12 -21 -3 -6 6 -8 16 -5 22 8 13 23 14 30 3z m16 -72 c12 -8 12 -10 -3 -16
-22 -8 -50 3 -42 16 8 12 25 13 45 0z m914 -5 c-7 -17 -20 -20 -28 -6 -7 10 3
21 20 21 8 0 11 -6 8 -15z m-194 -26 c0 -5 -6 -9 -13 -9 -8 0 -14 6 -14 14 0
8 6 12 14 9 7 -3 13 -9 13 -14z m40 1 c0 -5 -7 -10 -16 -10 -8 0 -12 5 -9 10
3 6 10 10 16 10 5 0 9 -4 9 -10z m99 -29 l24 -19 -22 -7 c-13 -4 -28 -1 -38 7
-12 10 -17 10 -20 1 -2 -7 -11 -9 -19 -6 -21 8 -17 23 6 23 11 0 20 5 20 10 0
16 23 11 49 -9z m-99 -15 c0 -3 -4 -8 -10 -11 -5 -3 -10 -1 -10 4 0 6 5 11 10
11 6 0 10 -2 10 -4z m220 -36 c-24 -15 -36 -11 -14 4 10 8 21 12 24 10 2 -3
-2 -9 -10 -14z m157 4 c-3 -3 -12 -4 -19 -1 -8 3 -5 6 6 6 11 1 17 -2 13 -5z
m-413 -25 c-3 -5 -10 -7 -15 -3 -5 3 -7 10 -3 15 3 5 10 7 15 3 5 -3 7 -10 3
-15z m91 1 c3 -5 1 -10 -4 -10 -6 0 -11 5 -11 10 0 6 2 10 4 10 3 0 8 -4 11
-10z m205 0 c0 -5 -2 -10 -4 -10 -3 0 -8 5 -11 10 -3 6 -1 10 4 10 6 0 11 -4
11 -10z m-105 -30 c-65 -19 -70 -18 -62 3 4 10 16 13 36 11 16 -2 33 0 36 5 3
5 15 7 27 3 18 -4 9 -9 -37 -22z m-120 -9 c3 -5 1 -12 -4 -15 -12 -8 -41 3
-41 15 0 12 37 12 45 0z m-686 -15 c10 -12 8 -13 -8 -9 -12 3 -18 9 -15 14 7
12 10 11 23 -5z m616 -5 c-14 -24 55 -31 83 -9 21 18 13 0 -12 -26 -21 -20
-27 -22 -43 -11 -9 7 -23 11 -30 8 -7 -3 -20 -2 -29 1 -15 6 -15 8 1 26 18 20
41 28 30 11z m290 0 c6 -11 -35 -42 -46 -35 -11 7 13 44 28 44 6 0 14 -4 18
-9z m-175 -51 c0 -5 -7 -10 -16 -10 -8 0 -12 5 -9 10 3 6 10 10 16 10 5 0 9
-4 9 -10z m-60 -52 c0 -16 -68 -8 -91 12 -14 11 -19 20 -11 21 6 1 16 2 21 3
5 0 12 4 16 8 8 8 65 -31 65 -44z m260 43 c0 -5 -9 -7 -20 -4 -11 3 -20 7 -20
9 0 2 9 4 20 4 11 0 20 -4 20 -9z m-130 -21 c0 -5 -5 -10 -11 -10 -5 0 -7 5
-4 10 3 6 8 10 11 10 2 0 4 -4 4 -10z m-32 -39 c30 -12 31 -14 15 -27 -21 -16
-67 -19 -58 -4 4 6 10 8 15 5 5 -3 11 -1 14 4 3 5 -3 11 -14 14 -11 3 -20 10
-20 17 0 6 3 10 8 8 4 -3 22 -10 40 -17z m-168 -12 c10 -6 6 -7 -12 -3 -28 6
-41 -10 -15 -19 21 -8 3 -15 -25 -10 -29 6 -29 33 1 33 14 0 14 2 1 11 -11 8
-9 9 10 3 14 -3 32 -10 40 -15z m107 -5 c-3 -3 -12 -4 -19 -1 -8 3 -5 6 6 6
11 1 17 -2 13 -5z m246 -11 c-7 -2 -19 -2 -25 0 -7 3 -2 5 12 5 14 0 19 -2 13
-5z m-293 -18 c0 -9 -6 -12 -15 -9 -8 4 -15 10 -15 15 0 5 7 9 15 9 8 0 15 -7
15 -15z m150 -5 c0 -5 -4 -10 -10 -10 -5 0 -10 5 -10 10 0 6 5 10 10 10 6 0
10 -4 10 -10z m74 1 c3 -5 0 -11 -8 -14 -15 -6 -26 1 -26 15 0 11 27 10 34 -1z
m96 -11 c0 -5 -6 -10 -12 -10 -7 0 -23 -3 -35 -6 -13 -4 -23 -2 -23 4 0 9 20
17 58 21 6 0 12 -3 12 -9z m-370 -14 c0 -8 11 -17 25 -20 14 -4 25 -13 25 -21
0 -22 -13 -18 -40 10 -12 13 -27 22 -31 19 -11 -6 -12 10 -2 19 11 12 23 8 23
-7z m-570 -20 c0 -3 -4 -8 -10 -11 -5 -3 -10 -1 -10 4 0 6 5 11 10 11 6 0 10
-2 10 -4z m905 -16 c-3 -5 -11 -10 -16 -10 -6 0 -7 5 -4 10 3 6 11 10 16 10 6
0 7 -4 4 -10z m15 -69 c0 -13 -21 -19 -44 -13 -20 5 -20 5 0 13 27 11 44 11
44 0z m-880 -31 c0 -5 -4 -10 -10 -10 -5 0 -10 5 -10 10 0 6 5 10 10 10 6 0
10 -4 10 -10z m395 -80 c3 -5 1 -10 -4 -10 -6 0 -11 5 -11 10 0 6 2 10 4 10 3
0 8 -4 11 -10z m-3319 -25 c-1 -9 -5 -15 -9 -15 -4 0 -12 0 -18 0 -8 0 -8 5 1
15 16 19 29 19 26 0z m3170 2 c8 3 14 -1 14 -9 0 -10 -9 -13 -30 -10 -30 4
-37 12 -23 26 4 3 11 2 16 -3 5 -5 16 -7 23 -4z m-3181 -47 c3 -5 1 -10 -4
-10 -6 0 -11 5 -11 10 0 6 2 10 4 10 3 0 8 -4 11 -10z m75 -14 c0 -2 -20 -16
-45 -30 -25 -13 -43 -21 -40 -15 4 5 23 18 43 29 41 21 42 22 42 16z m55 -26
c-3 -5 -17 -10 -31 -10 -13 0 -24 -4 -24 -9 0 -13 29 -35 37 -27 3 3 1 6 -5 6
-7 0 -12 5 -12 10 0 6 9 10 20 10 13 0 18 -5 14 -15 -5 -12 0 -14 24 -9 24 5
30 2 34 -14 4 -15 2 -19 -8 -15 -8 3 -11 9 -8 14 3 5 0 9 -5 9 -21 0 -11 -22
22 -51 17 -16 28 -29 24 -29 -5 0 -15 7 -24 15 -8 9 -18 13 -21 10 -3 -3 0
-11 6 -17 7 -7 12 -22 12 -35 0 -19 4 -22 28 -17 22 5 29 2 29 -11 0 -9 -6
-14 -13 -11 -20 8 -24 -33 -5 -47 18 -12 37 -54 33 -70 -1 -5 2 -6 8 -2 6 3 8
11 4 17 -4 6 3 8 17 6 16 -2 23 -9 21 -19 -1 -9 5 -19 13 -23 9 -3 13 -10 10
-16 -3 -5 0 -10 7 -10 9 0 9 -3 -2 -10 -9 -6 -18 -6 -24 0 -6 6 -18 10 -29 10
-17 0 -17 -1 -3 -16 9 -8 26 -16 38 -17 23 -2 38 -11 87 -56 l26 -24 -40 7
c-37 7 -38 6 -20 -7 16 -13 17 -17 6 -31 -8 -10 -9 -16 -3 -16 6 0 14 5 17 10
3 6 20 10 36 10 18 0 28 -4 24 -10 -3 -5 1 -10 10 -10 9 0 13 -4 10 -10 -3 -5
-1 -10 6 -10 7 0 10 -3 7 -6 -4 -3 -16 0 -28 6 -20 11 -21 10 -15 -12 4 -12
12 -24 16 -26 13 -5 11 -32 -3 -32 -24 0 5 -15 32 -16 23 -1 29 3 32 22 2 18
7 21 17 15 12 -8 12 -12 2 -25 -13 -15 -7 -56 8 -56 5 0 14 7 21 15 10 12 10
15 -4 15 -9 0 -16 6 -16 14 0 17 24 28 45 20 17 -7 20 -24 5 -24 -5 0 -10 5
-10 10 0 6 -5 10 -12 10 -8 0 -6 -6 4 -16 9 -9 22 -14 30 -12 21 8 33 7 30 -3
-1 -5 9 -7 23 -3 16 4 25 2 25 -6 0 -7 -7 -10 -15 -7 -8 4 -17 1 -21 -5 -4 -7
-10 -6 -16 3 -8 12 -10 12 -15 0 -4 -11 -7 -11 -14 0 -4 7 -11 10 -15 6 -8 -8
29 -47 44 -47 5 0 17 -9 27 -20 10 -11 24 -20 32 -20 7 0 13 -4 13 -9 0 -4 11
-6 24 -4 15 3 36 -3 53 -15 16 -11 35 -20 43 -19 24 3 127 -32 173 -57 23 -13
58 -26 77 -29 19 -3 43 -8 53 -12 10 -4 26 -9 35 -9 10 -1 37 -8 62 -15 25 -7
70 -14 100 -15 43 -1 61 -7 80 -24 l25 -23 -26 10 c-15 5 -30 7 -33 4 -3 -4
-6 -1 -6 6 0 7 -11 12 -27 11 -16 -1 -30 -1 -33 0 -3 1 -35 3 -73 5 -37 3 -76
9 -86 15 -11 5 -27 7 -35 4 -9 -3 -27 1 -41 10 -30 20 -36 20 -29 1 8 -19 -10
-20 -25 -1 -9 11 -8 15 6 21 17 7 17 8 -2 15 -11 5 -23 9 -26 9 -8 1 -5 -32 6
-48 6 -12 1 -13 -30 -8 -21 3 -42 12 -46 19 -4 7 -11 9 -15 6 -9 -9 21 -38 40
-38 23 0 28 -18 9 -29 -10 -6 -12 -11 -5 -11 21 0 13 -18 -10 -23 -20 -3 -19
-6 15 -20 20 -10 37 -21 37 -26 0 -12 64 -19 89 -9 14 5 20 3 18 -5 -1 -8 14
-12 48 -13 77 -1 83 -2 65 -14 -8 -5 -10 -10 -4 -10 5 0 15 5 22 12 6 6 15 8
19 3 5 -4 2 -10 -5 -12 -12 -5 50 -53 68 -53 4 0 11 -6 13 -12 4 -9 12 -5 25
10 19 24 32 27 110 21 30 -2 44 -8 48 -22 3 -10 8 -16 11 -14 11 12 -10 47
-28 47 -10 0 -19 6 -19 14 0 8 -10 17 -22 19 -21 4 -21 4 3 6 14 0 30 -4 37
-11 6 -6 35 -12 64 -14 29 -1 67 -5 83 -9 21 -4 26 -4 16 3 -7 5 -10 15 -7 21
4 6 2 11 -5 11 -9 0 -10 3 -3 10 7 7 19 8 36 1 33 -12 71 10 51 30 -7 7 -16 9
-20 5 -4 -4 -1 -11 7 -16 12 -8 10 -10 -7 -10 -12 0 -25 5 -29 12 -5 7 -3 8 6
3 8 -5 11 -4 7 2 -4 6 0 16 8 23 11 9 19 8 39 -7 28 -20 35 -53 11 -53 -8 0
-15 -5 -15 -10 0 -7 6 -7 20 0 14 8 20 8 20 0 0 -6 5 -8 10 -5 6 4 8 10 5 15
-6 10 34 25 42 16 4 -3 7 -16 8 -28 1 -14 10 -25 23 -28 18 -4 19 -7 7 -23 -7
-10 -23 -19 -34 -20 -13 -1 -20 -6 -17 -14 3 -7 -1 -10 -10 -6 -27 10 -12 29
19 24 4 -1 3 8 -3 19 -12 22 -32 28 -24 6 5 -12 -40 -30 -73 -29 -22 1 -3 -17
33 -32 19 -8 40 -12 47 -9 7 2 13 -4 14 -16 1 -11 -2 -20 -8 -20 -5 0 -9 3 -9
8 0 4 -23 7 -50 8 -34 0 -50 -4 -50 -12 0 -7 -5 -14 -12 -16 -13 -5 -2 -28 13
-28 6 0 7 5 4 10 -10 16 15 12 31 -5 14 -13 13 -15 -4 -15 -29 0 -53 -11 -46
-21 3 -5 -1 -6 -9 -3 -8 3 -18 1 -21 -5 -4 -6 -14 -8 -24 -5 -14 5 -14 4 -3
-4 8 -6 21 -8 29 -4 10 3 13 1 8 -6 -4 -7 1 -10 15 -7 16 3 18 1 10 -9 -9 -11
-6 -12 14 -8 15 2 25 0 25 -7 0 -7 5 -9 10 -6 6 3 10 -1 10 -9 0 -9 -4 -16
-10 -16 -5 0 -10 -8 -10 -17 0 -14 4 -13 21 6 12 12 23 20 25 18 9 -8 -19 -56
-29 -50 -11 6 -28 -17 -21 -29 3 -4 14 -3 24 2 16 9 18 8 14 -5 -8 -19 -41
-38 -54 -30 -6 3 -7 -1 -4 -9 3 -9 10 -13 15 -10 5 3 9 1 9 -5 0 -6 7 -8 15
-5 8 4 12 10 9 15 -3 5 0 9 6 9 6 0 9 4 5 9 -3 5 0 13 6 16 19 12 22 -3 5 -27
-20 -29 -20 -42 0 -34 8 3 12 2 9 -4 -3 -5 -19 -8 -35 -6 -17 2 -30 -1 -30 -5
0 -5 7 -9 15 -9 8 0 15 -7 15 -16 0 -11 -6 -13 -19 -9 -21 6 -36 -9 -26 -25 5
-8 11 -7 21 1 8 7 14 7 14 1 0 -16 -31 -23 -47 -11 -11 9 -17 8 -28 -7 -8 -10
-15 -22 -15 -26 0 -12 -50 -9 -50 2 0 6 9 10 20 10 20 0 75 48 66 58 -4 3 -19
-7 -34 -21 -16 -15 -33 -27 -40 -27 -10 0 -38 -38 -30 -41 2 0 13 -2 25 -3 13
-2 26 -6 30 -11 5 -4 -1 -5 -11 -1 -13 4 -23 0 -33 -14 -8 -11 -20 -20 -28
-20 -8 0 -17 -5 -21 -12 -4 -7 -3 -8 4 -4 7 4 12 1 12 -9 0 -9 5 -13 10 -10 6
3 10 1 10 -4 0 -14 -13 -14 -26 -1 -6 6 -19 8 -28 4 -11 -4 -14 -9 -7 -14 7
-4 9 -19 5 -38 -4 -17 -10 -29 -15 -26 -5 3 -9 -4 -9 -15 0 -13 -12 -26 -30
-36 -36 -18 -38 -32 -7 -45 12 -5 17 -9 10 -9 -26 -2 -43 12 -43 35 0 13 3 23
8 22 4 -2 8 0 10 5 1 4 0 7 -3 7 -3 0 -14 0 -26 0 -11 0 -18 -4 -15 -8 2 -4 1
-14 -4 -22 -5 -9 -5 -19 2 -27 6 -7 7 -13 2 -13 -5 0 -3 -4 4 -8 17 -11 6 -39
-19 -45 -10 -3 -19 -1 -19 3 0 4 -9 6 -20 3 -11 -3 -17 -9 -14 -14 3 -5 -1 -9
-10 -9 -8 0 -16 6 -19 13 -4 10 -7 10 -18 0 -9 -10 -10 -13 -1 -13 7 0 12 -7
12 -15 0 -8 6 -15 14 -15 8 0 14 -11 14 -27 0 -32 -21 -56 -35 -42 -7 7 -12 4
-15 -9 -4 -13 -1 -19 10 -18 9 1 15 -9 16 -26 1 -24 -1 -26 -26 -21 -20 4 -28
1 -28 -8 0 -8 -18 -22 -39 -31 -47 -22 -53 -22 -49 0 2 13 -5 18 -30 20 -18 2
-30 8 -27 13 4 5 1 9 -4 9 -6 0 -11 -4 -11 -10 0 -5 -5 -10 -11 -10 -5 0 -8 4
-4 9 3 5 1 12 -4 15 -5 3 -11 -4 -14 -15 -3 -12 -10 -18 -16 -15 -5 4 -12 2
-16 -4 -3 -5 2 -10 12 -11 11 0 13 -3 5 -6 -6 -2 -10 -8 -8 -12 3 -4 -4 -7
-14 -7 -10 0 -16 4 -14 8 10 16 -13 8 -34 -12 -12 -12 -23 -16 -27 -10 -3 6
-11 10 -17 10 -6 0 -5 -7 3 -16 12 -15 11 -16 -9 -10 -13 5 -22 3 -22 -3 0 -6
4 -11 9 -11 5 0 11 -9 14 -20 4 -15 0 -20 -14 -20 -12 0 -19 7 -19 20 0 11 -5
20 -11 20 -7 0 -8 -7 -4 -17 15 -37 17 -53 6 -53 -6 0 -11 10 -11 22 l0 21
-23 -21 c-27 -26 -37 -28 -37 -7 0 8 -8 15 -17 15 -14 0 -15 -2 -4 -9 8 -5 9
-11 3 -15 -6 -3 -13 0 -15 6 -4 9 -12 5 -26 -12 -11 -14 -21 -20 -21 -14 0 6
9 19 20 29 23 21 23 56 1 63 -10 3 -12 -2 -7 -22 3 -14 2 -26 -3 -26 -5 0 -11
-9 -14 -20 -5 -20 -37 -29 -37 -10 0 6 -11 10 -25 10 -14 0 -25 -5 -25 -11 0
-6 7 -9 15 -6 8 4 17 1 21 -6 4 -7 4 -9 -1 -5 -4 4 -16 3 -26 -3 -16 -8 -19
-6 -19 10 0 15 -8 20 -40 23 -22 2 -40 0 -40 -5 0 -5 -11 -6 -25 -3 -26 7 -35
-8 -12 -18 6 -4 2 -4 -10 -2 -13 2 -23 1 -23 -4 0 -4 -15 -6 -32 -5 -23 2 -33
8 -32 19 1 9 -3 16 -8 16 -6 0 -7 8 -4 18 6 16 5 16 -8 0 -7 -10 -19 -18 -25
-18 -7 0 -11 8 -9 18 2 11 -8 22 -29 32 -33 15 -45 40 -19 40 9 0 14 9 13 20
-1 12 -5 16 -10 11 -13 -13 -37 -2 -37 15 0 7 -12 17 -26 20 -19 5 -22 9 -12
15 11 8 10 11 -2 18 -8 5 -18 7 -24 4 -5 -4 -7 1 -3 10 3 10 2 17 -2 17 -5 0
-11 -6 -14 -12 -2 -7 -8 -10 -12 -6 -11 10 14 38 32 38 13 0 13 3 3 15 -10 12
-10 15 3 15 8 0 18 -6 20 -12 4 -8 6 -7 6 3 1 19 -25 33 -35 18 -4 -6 -11 -6
-20 2 -17 14 -19 -2 -2 -19 9 -9 9 -12 0 -12 -7 0 -11 -6 -10 -12 2 -7 -7 -14
-19 -16 -13 -2 -23 1 -23 7 0 6 -7 11 -15 11 -16 0 -36 39 -28 53 2 4 14 7 26
7 21 -1 21 -1 4 -14 -10 -8 -15 -16 -10 -19 10 -6 53 28 53 42 0 6 7 11 15 11
8 0 15 5 15 10 0 6 -7 10 -15 10 -21 0 -30 -4 -28 -12 1 -3 -11 -5 -27 -3 -17
2 -36 -2 -44 -11 -8 -7 -18 -14 -23 -14 -4 1 3 10 16 20 13 11 20 20 16 20 -3
0 1 7 10 17 14 13 18 14 25 3 5 -8 6 -19 3 -25 -3 -5 6 2 19 18 26 28 45 37
32 15 -4 -7 -4 -10 1 -6 4 4 14 3 22 -3 9 -9 13 -8 13 0 0 6 -5 11 -11 11 -8
0 -8 4 0 14 10 11 8 15 -6 18 -29 6 -52 -3 -46 -18 4 -10 0 -12 -11 -8 -9 3
-16 12 -16 20 0 7 -7 17 -15 22 -13 7 -12 10 10 20 14 6 25 16 25 22 0 16 -17
12 -24 -7 -5 -13 -9 -14 -19 -4 -9 10 -8 15 7 27 20 14 20 14 0 16 -10 0 -26
1 -34 0 -8 -1 -21 1 -29 4 -11 4 -9 8 7 20 12 8 27 12 33 8 13 -8 -7 33 -28
57 -12 14 -11 18 4 30 11 9 14 10 9 2 -4 -7 -2 -13 3 -13 6 0 11 2 11 4 0 2 3
12 6 20 5 12 1 15 -12 13 -11 -1 -24 -6 -31 -10 -14 -9 -8 -47 9 -59 10 -6 10
-10 -2 -18 -21 -14 -34 -12 -22 3 7 8 7 18 2 27 -6 8 -10 27 -10 41 0 20 6 28
25 33 14 4 25 11 25 16 0 6 8 10 18 11 13 0 11 3 -6 10 -13 5 -20 13 -17 19 4
6 3 10 -2 9 -4 -1 -20 -1 -35 0 -38 1 -36 18 2 18 17 0 32 2 35 5 9 9 -6 58
-16 53 -4 -3 -5 -13 -2 -23 6 -15 5 -15 -10 -3 -21 17 -21 25 1 47 16 17 16
18 -1 11 -11 -4 -27 -1 -38 7 -17 11 -18 14 -4 19 23 9 19 58 -5 64 -11 3 -20
12 -20 20 0 10 6 13 16 9 8 -3 12 -2 9 4 -9 14 8 12 25 -2 12 -11 12 -10 1 5
-8 10 -21 15 -32 12 -9 -3 -20 -1 -24 5 -3 5 1 10 10 10 13 0 16 6 11 24 -5
20 -1 26 22 34 17 7 21 11 10 11 -10 1 -18 6 -18 12 0 6 7 8 16 5 8 -3 12 -2
9 4 -3 6 -1 10 6 10 8 0 9 10 5 33 l-6 32 23 -25 c14 -14 22 -28 20 -32 -2 -5
2 -8 11 -8 13 0 13 4 0 29 -11 22 -12 36 -4 56 6 15 8 30 5 35 -6 9 47 6 64
-4 7 -5 15 -5 18 -2 4 3 1 6 -6 6 -7 0 -9 5 -5 12 4 7 3 8 -4 4 -19 -11 -14 9
8 34 11 13 20 29 20 37 0 7 6 13 13 14 6 0 1 4 -11 10 -13 5 -28 7 -33 3 -5
-3 -9 1 -10 8 0 10 -2 10 -6 1 -8 -21 -30 -15 -37 10 l-7 22 -15 -22 c-15 -21
-44 -22 -44 -1 0 6 6 8 14 5 14 -6 48 27 39 37 -4 3 -1 6 5 6 7 0 12 5 12 10
0 6 -7 10 -16 10 -8 0 -12 5 -9 10 3 6 -2 11 -12 11 -17 1 -17 2 0 6 9 2 17
10 17 18 0 17 -27 27 -34 12 -2 -7 -5 -2 -5 11 -1 12 5 22 12 23 8 0 8 2 -2 6
-7 3 -22 14 -33 25 -10 10 -24 16 -31 13 -7 -4 -5 -1 3 7 23 20 24 48 2 48
-11 0 -33 7 -48 16 l-29 16 38 -6 c27 -3 35 -2 30 7 -16 25 -13 86 5 103 16
17 16 17 0 11 -22 -8 -32 7 -20 30 11 20 -5 42 -24 36 -7 -2 -9 6 -6 23 4 21
2 25 -9 19 -8 -4 3 10 24 31 20 22 37 46 37 54 -1 9 -7 4 -15 -10 -13 -23 -14
-23 -15 -4 0 25 -18 44 -36 37 -9 -3 -14 2 -14 17 0 12 4 18 11 15 7 -5 8 5 4
29 -5 25 -4 36 5 36 8 0 10 9 6 25 -5 18 -2 25 9 25 21 0 19 26 -5 50 -24 24
-25 30 -5 30 8 0 15 -5 15 -10 0 -7 8 -6 23 1 12 7 23 12 25 11 9 -7 22 0 17
8 -4 6 -15 8 -26 5 -18 -6 -18 -4 -7 20 10 23 10 29 -4 39 -14 11 -14 14 2 34
22 27 33 29 26 4 -7 -22 26 -57 46 -49 8 3 6 6 -5 6 -10 1 -15 6 -12 11 3 6 2
10 -4 10 -5 0 -9 14 -9 31 1 24 8 33 32 44 37 16 70 19 61 5z m55 -16 c0 -8
-4 -12 -10 -9 -5 3 -10 10 -10 16 0 5 5 9 10 9 6 0 10 -7 10 -16z m1370 6 c0
-13 -11 -13 -30 0 -12 8 -11 10 8 10 12 0 22 -4 22 -10z m-10 -43 c10 -4 8 -6
-6 -6 -12 -1 -25 6 -28 15 -5 13 -3 14 6 7 7 -6 20 -13 28 -16z m-133 -13 c-9
-9 -28 6 -21 18 4 6 10 6 17 -1 6 -6 8 -13 4 -17z m190 12 c-4 -10 4 -17 24
-21 31 -7 35 -15 18 -32 -9 -9 -2 -13 25 -19 50 -9 36 -18 -23 -15 -42 2 -49
-1 -54 -18 -4 -19 -1 -21 31 -20 35 0 36 1 12 11 -33 13 -10 22 36 14 29 -6
33 -10 25 -25 -8 -14 -6 -17 7 -17 9 1 18 -3 20 -9 1 -5 -16 -10 -38 -11 -22
0 -43 -3 -46 -7 -4 -4 25 -7 64 -7 80 0 112 -19 35 -21 -26 -1 -55 -1 -65 0
-9 1 -19 -3 -23 -9 -4 -6 9 -10 35 -10 28 0 39 -4 34 -11 -10 -16 -110 -4
-130 15 -8 9 -25 16 -37 15 -21 0 -21 -1 -3 -8 12 -5 16 -10 9 -14 -19 -12
-43 4 -39 25 3 25 33 49 51 42 7 -3 16 -1 20 5 4 7 -8 11 -32 11 -21 1 -49 7
-62 14 -24 13 -23 14 28 21 46 6 52 10 48 27 -4 12 -1 18 6 15 7 -2 21 -1 32
3 18 6 16 9 -15 25 -26 14 -31 20 -17 23 9 2 17 8 17 13 0 5 3 9 6 9 3 0 4 -6
1 -14z m43 0 c0 -11 -19 -15 -25 -6 -3 5 1 10 9 10 9 0 16 -2 16 -4z m-1723
-12 c-3 -3 -12 -4 -19 -1 -8 3 -5 6 6 6 11 1 17 -2 13 -5z m1591 -16 c2 -4 11
-8 20 -8 8 0 13 -3 9 -6 -3 -3 -23 0 -44 7 -21 7 -46 12 -55 11 -10 0 -18 4
-18 9 0 11 84 0 88 -13z m-1564 -13 c3 -8 1 -15 -4 -15 -6 0 -10 7 -10 15 0 8
2 15 4 15 2 0 6 -7 10 -15z m32 -40 c-3 -9 -11 -13 -16 -10 -8 5 -7 11 1 21
14 18 24 11 15 -11z m1493 -1 c2 -2 1 -7 -2 -11 -4 -3 -22 1 -40 10 l-32 17
35 -6 c19 -4 37 -8 39 -10z m51 -4 c0 -5 -2 -10 -4 -10 -3 0 -8 5 -11 10 -3 6
-1 10 4 10 6 0 11 -4 11 -10z m-1300 -16 c0 -2 -7 -4 -15 -4 -8 0 -15 4 -15
10 0 5 7 7 15 4 8 -4 15 -8 15 -10z m-303 -15 c2 -17 -1 -18 -12 -9 -8 7 -12
16 -9 21 9 16 20 10 21 -12z m1823 11 c0 -5 -7 -10 -16 -10 -8 0 -12 5 -9 10
3 6 10 10 16 10 5 0 9 -4 9 -10z m-300 -15 c0 -8 -7 -15 -15 -15 -16 0 -20 12
-8 23 11 12 23 8 23 -8z m69 -21 c8 -7 -30 -16 -44 -10 -27 10 -17 27 13 20
15 -4 29 -8 31 -10z m251 -4 c0 -5 -5 -10 -11 -10 -5 0 -7 5 -4 10 3 6 8 10
11 10 2 0 4 -4 4 -10z m-1490 -20 c0 -5 -5 -10 -11 -10 -5 0 -7 5 -4 10 3 6 8
10 11 10 2 0 4 -4 4 -10z m-354 -38 c-10 -10 -29 15 -21 28 6 9 10 8 17 -4 6
-10 7 -20 4 -24z m1564 26 c0 -12 -38 -10 -45 2 -4 6 5 9 19 8 15 -1 26 -6 26
-10z m320 -48 c0 -5 -9 -10 -21 -10 -11 0 -17 5 -14 10 3 6 13 10 21 10 8 0
14 -4 14 -10z m-316 -70 c55 -11 102 -23 105 -26 15 -14 -167 11 -194 28 -37
22 -33 22 89 -2z m-1099 -10 c3 -5 1 -10 -4 -10 -6 0 -11 5 -11 10 0 6 2 10 4
10 3 0 8 -4 11 -10z m1245 -20 c0 -5 -7 -10 -15 -10 -8 0 -15 5 -15 10 0 6 7
10 15 10 8 0 15 -4 15 -10z m80 -21 c0 -5 -10 -7 -22 -5 -13 3 -27 5 -33 5 -5
1 -4 5 4 10 15 10 51 3 51 -10z m-1310 1 c0 -5 -5 -10 -11 -10 -5 0 -7 5 -4
10 3 6 8 10 11 10 2 0 4 -4 4 -10z m965 0 c3 -5 1 -10 -4 -10 -6 0 -11 5 -11
10 0 6 2 10 4 10 3 0 8 -4 11 -10z m215 0 c12 -7 8 -10 -15 -10 -23 0 -27 -3
-15 -10 11 -7 7 -10 -18 -10 -20 0 -31 -4 -27 -10 3 -5 23 -10 43 -10 30 -1
34 -3 20 -11 -13 -7 -30 -6 -59 4 -25 9 -36 17 -28 20 12 5 12 7 -1 16 -16 11
-9 14 30 12 20 -2 22 0 10 8 -12 9 -9 11 15 11 17 0 37 -5 45 -10z m-144 -15
c-3 -9 0 -15 10 -15 8 0 12 -4 9 -10 -9 -14 -18 -13 -41 6 -10 8 -13 13 -6 9
6 -3 15 1 18 9 3 9 8 16 11 16 3 0 3 -7 -1 -15z m-1478 -22 c2 -11 -5 -26 -14
-34 -12 -9 -15 -10 -10 -1 4 7 2 12 -5 12 -10 0 -10 3 -2 11 6 6 9 18 6 27 -4
10 -1 13 8 10 8 -2 15 -14 17 -25z m1677 17 c3 -5 1 -10 -4 -10 -6 0 -11 5
-11 10 0 6 2 10 4 10 3 0 8 -4 11 -10z m-1165 -71 c0 -5 -7 -6 -15 -3 -8 4
-15 13 -15 21 0 13 3 13 15 3 8 -7 15 -16 15 -21z m-550 -79 c0 -5 -2 -10 -4
-10 -3 0 -8 5 -11 10 -3 6 -1 10 4 10 6 0 11 -4 11 -10z m30 -24 c0 -28 -8
-36 -26 -29 -17 6 -19 24 -1 21 7 -2 12 6 11 19 0 12 3 20 8 17 4 -3 8 -15 8
-28z m1784 25 c3 -5 -8 -11 -24 -13 -17 -3 -30 -3 -30 -1 0 3 28 16 47 22 1 1
4 -3 7 -8z m-1250 -17 c3 -8 2 -12 -4 -9 -6 3 -10 10 -10 16 0 14 7 11 14 -7z
m1156 9 c0 -5 -15 -8 -32 -7 -18 0 -44 -4 -57 -8 -14 -5 -32 -6 -40 -2 -12 5
-8 9 14 14 41 10 115 12 115 3z m-585 -23 c3 -5 2 -10 -4 -10 -5 0 -13 5 -16
10 -3 6 -2 10 4 10 5 0 13 -4 16 -10z m353 3 c-10 -2 -26 -2 -35 0 -10 3 -2 5
17 5 19 0 27 -2 18 -5z m538 -7 c8 -8 14 -17 14 -20 0 -10 -51 -6 -73 6 -21
11 -21 11 -2 19 30 12 45 10 61 -5z m-138 -11 c4 -9 18 -17 30 -18 12 -1 22
-8 22 -16 0 -10 -3 -12 -10 -5 -6 6 -35 7 -70 4 -66 -6 -71 -5 -63 16 4 10 10
11 23 4 27 -14 43 -12 37 4 -11 27 16 36 31 11z m-168 -5 c-11 -7 -11 -10 -2
-10 7 0 11 -4 7 -10 -3 -5 -13 -6 -22 -3 -12 5 -15 2 -10 -10 4 -11 1 -17 -7
-17 -17 0 -16 28 1 34 8 3 11 10 8 16 -3 6 4 10 17 10 18 0 20 -2 8 -10z m46
-27 c-14 -15 -28 -24 -32 -20 -8 7 33 47 48 47 5 0 -2 -12 -16 -27z m-962 -19
c5 -14 4 -15 -9 -4 -17 14 -19 20 -6 20 5 0 12 -7 15 -16z m1212 7 c-3 -5 1
-12 10 -15 8 -3 12 -10 9 -16 -11 -18 -41 -29 -55 -20 -12 7 -10 14 10 34 23
26 36 34 26 17z m-2026 -5 c0 -3 -4 -8 -10 -11 -5 -3 -10 -1 -10 4 0 6 5 11
10 11 6 0 10 -2 10 -4z m1380 -6 c-12 -8 -10 -10 8 -10 13 0 21 -4 17 -10 -7
-11 -55 8 -55 22 0 4 10 8 23 8 18 0 19 -2 7 -10z m261 -13 c-13 -13 -26 -3
-16 12 3 6 11 8 17 5 6 -4 6 -10 -1 -17z m-854 -17 c6 0 13 -7 17 -15 8 -21
-7 -19 -34 5 -13 11 -30 20 -39 20 -14 0 -14 2 -1 10 10 6 20 4 31 -6 8 -7 20
-14 26 -14z m683 9 c0 -5 -10 -9 -22 -8 -13 0 -17 3 -10 6 6 2 10 9 7 14 -4 5
1 6 9 3 9 -3 16 -10 16 -15z m-1414 -5 c-3 -9 -6 -18 -6 -20 0 -2 -7 -4 -15
-4 -18 0 -19 12 -3 28 17 17 31 15 24 -4z m844 6 c0 -5 -4 -10 -10 -10 -5 0
-10 5 -10 10 0 6 5 10 10 10 6 0 10 -4 10 -10z m650 0 c0 -5 -10 -10 -22 -10
-19 0 -20 2 -8 10 19 13 30 13 30 0z m-662 -22 c22 -2 -6 -22 -34 -24 -16 0
-29 6 -36 19 -9 18 -8 19 23 13 19 -3 40 -7 47 -8z m117 -18 c4 -6 11 -7 17
-4 6 4 8 2 4 -4 -3 -6 0 -17 8 -25 8 -8 12 -18 8 -22 -4 -5 -1 -5 6 -1 6 4 12
2 12 -3 0 -18 -38 -12 -49 7 -6 9 -11 11 -11 5 0 -9 -7 -10 -26 -3 -14 6 -30
7 -36 4 -7 -5 -8 -2 -3 6 6 9 4 12 -7 8 -8 -4 -21 -2 -29 3 -11 7 -11 9 3 9 9
0 24 3 34 7 12 4 15 3 10 -5 -5 -8 5 -11 29 -10 27 1 32 4 21 10 -17 10 -22
28 -7 28 6 0 13 -5 16 -10z m901 -5 c-11 -8 -22 -12 -25 -9 -6 6 19 24 34 24
6 -1 1 -7 -9 -15z m-842 -11 c9 -3 13 -10 10 -15 -8 -14 -21 -11 -28 6 -6 17
-4 18 18 9z m766 2 c0 -11 -19 -15 -25 -6 -3 5 1 10 9 10 9 0 16 -2 16 -4z
m-1770 -21 c7 -8 16 -12 21 -9 15 9 10 -3 -7 -16 -12 -11 -15 -11 -12 1 2 9
-5 14 -19 13 -23 -1 -29 7 -16 19 10 11 19 8 33 -8z m1220 0 c-7 -9 -15 -13
-19 -10 -3 3 1 10 9 15 21 14 24 12 10 -5z m406 -11 c-13 -9 -14 -13 -4 -17 9
-4 9 -6 1 -6 -16 -1 -26 17 -19 34 3 9 12 12 22 8 16 -6 16 -7 0 -19z m-186 1
c0 -8 -3 -16 -7 -16 -50 -8 -64 -7 -60 4 2 7 14 12 26 11 11 0 21 3 21 8 0 4
5 8 10 8 6 0 10 -7 10 -15z m125 5 c3 -5 -2 -10 -12 -10 -15 0 -15 -2 -3 -9 8
-6 18 -7 22 -5 4 3 8 0 8 -5 0 -14 -3 -14 -35 1 -27 12 -32 24 -12 31 19 8 25
8 32 -3z m-265 -11 c0 -8 5 -7 15 1 13 11 14 10 9 -4 -8 -20 -18 -20 -34 -1
-9 10 -9 15 -1 15 6 0 11 -5 11 -11z m-136 -8 c3 -5 15 -7 26 -4 11 3 20 1 20
-5 0 -6 -8 -12 -17 -14 -15 -3 -15 -4 1 -20 9 -10 16 -21 16 -25 -1 -4 9 -11
22 -15 21 -6 6 -13 -17 -8 -5 1 -19 3 -30 4 -24 3 -85 35 -67 36 7 0 21 -5 32
-12 10 -7 23 -8 27 -4 4 5 2 11 -5 13 -6 3 -10 8 -7 13 3 4 -2 13 -10 20 -8 7
-15 16 -15 21 0 12 17 12 24 0z m332 0 c-3 -5 -15 -7 -26 -4 -28 7 -25 13 6
13 14 0 23 -4 20 -9z m-76 -31 c-20 -13 -40 -12 -40 1 0 6 7 9 15 6 8 -4 17
-2 21 4 3 6 9 8 12 4 4 -3 0 -10 -8 -15z m65 -8 c-6 -7 -34 11 -29 19 3 5 11
3 19 -4 7 -6 12 -13 10 -15z m-225 8 c0 -5 -4 -10 -10 -10 -5 0 -10 5 -10 10
0 6 5 10 10 10 6 0 10 -4 10 -10z m47 4 c-3 -3 -12 -4 -19 -1 -8 3 -5 6 6 6
11 1 17 -2 13 -5z m-212 -16 c3 -3 -3 -8 -14 -11 -11 -2 -22 1 -24 7 -5 12 27
15 38 4z m715 -4 c0 -2 -7 -4 -15 -4 -8 0 -15 4 -15 10 0 5 7 7 15 4 8 -4 15
-8 15 -10z m275 6 c-3 -5 -11 -10 -16 -10 -6 0 -7 5 -4 10 3 6 11 10 16 10 6
0 7 -4 4 -10z m-2041 -20 c-10 -4 -21 -6 -24 -3 -8 7 24 22 34 16 5 -4 1 -10
-10 -13z m1251 10 c3 -5 -1 -10 -9 -10 -9 0 -16 5 -16 10 0 6 4 10 9 10 6 0
13 -4 16 -10z m343 -15 c-2 -2 -18 0 -37 2 -21 4 -28 8 -20 13 10 7 65 -8 57
-15z m77 15 c3 -5 1 -10 -4 -10 -6 0 -11 5 -11 10 0 6 2 10 4 10 3 0 8 -4 11
-10z m242 -16 c-3 -3 -12 -4 -19 -1 -8 3 -5 6 6 6 11 1 17 -2 13 -5z m48 -4
c-3 -5 -12 -10 -18 -10 -7 0 -6 4 3 10 19 12 23 12 15 0z m-327 -18 c2 -7 -2
-10 -12 -6 -9 3 -16 11 -16 16 0 13 23 5 28 -10z m129 12 c-3 -3 -12 -4 -19
-1 -8 3 -5 6 6 6 11 1 17 -2 13 -5z m-196 -17 c-1 -12 -15 -9 -19 4 -3 6 1 10
8 8 6 -3 11 -8 11 -12z m159 3 c0 -5 -2 -10 -4 -10 -3 0 -8 5 -11 10 -3 6 -1
10 4 10 6 0 11 -4 11 -10z m66 -5 c-22 -17 -46 -20 -46 -6 0 10 22 18 50 20
11 0 10 -4 -4 -14z m81 9 c-3 -3 -12 -4 -19 -1 -8 3 -5 6 6 6 11 1 17 -2 13
-5z m-488 -20 c13 -13 -10 -12 -35 2 l-29 16 30 -7 c16 -4 32 -9 34 -11z m231
-4 c0 -5 -7 -10 -15 -10 -8 0 -15 5 -15 10 0 6 7 10 15 10 8 0 15 -4 15 -10z
m-26 -42 c-3 -4 -15 -4 -27 1 -25 8 -60 3 -53 -8 3 -4 -9 -8 -25 -9 -16 -1
-29 2 -29 8 0 6 -12 9 -26 8 -15 -2 -29 3 -31 9 -3 9 4 11 29 6 18 -3 34 -10
36 -14 4 -10 32 0 32 12 0 5 -7 9 -15 9 -8 0 -15 4 -15 9 0 4 29 1 64 -8 35
-9 62 -19 60 -23z m131 32 c8 -13 -25 -13 -45 0 -12 8 -9 10 12 10 15 0 30 -4
33 -10z m99 -5 c11 -8 15 -15 9 -15 -19 0 -43 12 -43 21 0 13 12 11 34 -6z
m94 -3 c2 -7 -2 -10 -12 -6 -9 3 -16 11 -16 16 0 13 23 5 28 -10z m52 14 c0
-3 -4 -8 -10 -11 -5 -3 -10 -1 -10 4 0 6 5 11 10 11 6 0 10 -2 10 -4z m62 -13
c22 -20 23 -33 3 -33 -8 0 -15 5 -15 10 0 6 -7 10 -15 10 -9 0 -12 6 -9 15 8
19 13 19 36 -2z m-335 -15 c4 -7 -6 -9 -26 -6 -31 4 -43 -6 -18 -15 7 -3 6 -6
-5 -6 -20 -1 -30 12 -23 31 6 16 61 13 72 -4z m-557 -9 c0 -5 17 -9 38 -8 44
1 77 -3 154 -20 46 -10 56 -16 55 -32 -2 -24 -12 -24 -38 0 -12 11 -29 17 -41
13 -11 -2 -23 0 -27 6 -3 6 -37 13 -76 16 -38 3 -73 10 -78 15 -5 5 -16 7 -23
4 -8 -3 -14 -1 -14 5 0 6 6 12 13 15 16 5 37 -3 37 -14z m640 17 c0 -3 -4 -8
-10 -11 -5 -3 -10 -1 -10 4 0 6 5 11 10 11 6 0 10 -2 10 -4z m115 -7 c4 -6 5
-13 2 -16 -8 -7 -47 7 -47 18 0 13 37 11 45 -2z m-855 -3 c0 -11 -19 -15 -25
-6 -3 5 1 10 9 10 9 0 16 -2 16 -4z m-46 -15 c3 -4 34 -11 68 -14 35 -4 72 -9
83 -11 11 -3 27 -5 35 -6 12 0 10 -4 -5 -16 -19 -16 -19 -16 5 -9 20 6 23 5
13 -5 -17 -18 -44 -5 -37 17 5 16 4 16 -8 2 -7 -9 -20 -18 -28 -22 -13 -4 -12
-6 1 -6 9 -1 19 -8 23 -16 4 -11 -1 -15 -19 -15 -18 0 -25 5 -25 20 0 11 -7
20 -15 20 -8 0 -15 -6 -15 -14 0 -17 -34 -10 -51 10 -9 12 -4 14 32 16 24 0
52 1 62 0 9 -1 17 3 17 8 0 12 -119 10 -126 -2 -9 -15 -36 -9 -30 7 3 9 -1 15
-11 15 -13 0 -13 3 -3 15 14 17 26 19 34 6z m756 5 c0 -3 -4 -8 -10 -11 -5 -3
-10 -1 -10 4 0 6 5 11 10 11 6 0 10 -2 10 -4z m90 -6 c0 -5 -4 -10 -10 -10 -5
0 -10 5 -10 10 0 6 5 10 10 10 6 0 10 -4 10 -10z m128 -8 c2 -7 -1 -12 -8 -12
-6 0 -9 4 -6 9 4 5 1 12 -4 14 -6 3 -5 4 2 3 6 -1 14 -8 16 -14z m-413 -2 c-3
-5 -11 -10 -16 -10 -6 0 -7 5 -4 10 3 6 11 10 16 10 6 0 7 -4 4 -10z m65 0 c0
-5 -4 -10 -10 -10 -5 0 -10 5 -10 10 0 6 5 10 10 10 6 0 10 -4 10 -10z m83 -8
c15 -16 15 -18 -3 -18 -10 0 -21 8 -23 18 -3 10 -2 18 2 18 5 0 15 -8 24 -18z
m102 8 c3 -5 -1 -10 -9 -10 -9 0 -16 5 -16 10 0 6 4 10 9 10 6 0 13 -4 16 -10z
m370 0 c3 -5 1 -10 -4 -10 -6 0 -11 5 -11 10 0 6 2 10 4 10 3 0 8 -4 11 -10z
m-269 -11 c10 -17 -9 -29 -35 -22 -23 6 -23 7 -6 20 23 16 32 16 41 2z m-1891
-9 c-3 -5 -11 -10 -16 -10 -6 0 -7 5 -4 10 3 6 11 10 16 10 6 0 7 -4 4 -10z
m1460 0 c4 -6 -7 -10 -24 -10 -17 0 -31 5 -31 10 0 6 11 10 24 10 14 0 28 -4
31 -10z m45 0 c12 -8 11 -10 -7 -10 -13 0 -23 5 -23 10 0 13 11 13 30 0z m420
-4 c0 -23 -16 -27 -17 -5 -1 10 2 19 8 19 5 0 9 -6 9 -14z m190 4 c0 -5 -2
-10 -4 -10 -3 0 -8 5 -11 10 -3 6 -1 10 4 10 6 0 11 -4 11 -10z m-871 -9 c10
-7 7 -9 -12 -8 -15 1 -27 5 -27 10 0 10 22 9 39 -2z m572 -1 c10 -6 19 -17 19
-25 0 -8 4 -15 9 -15 5 0 11 -7 15 -15 4 -11 -2 -15 -20 -15 -14 0 -23 4 -19
9 3 5 0 15 -7 23 -44 46 -43 62 3 38z m-177 -6 c26 -10 18 -24 -13 -24 -16 0
-31 -6 -34 -12 -2 -7 -7 -10 -11 -7 -3 3 3 15 14 27 23 25 22 24 44 16z m101
-4 c-3 -5 -10 -10 -16 -10 -5 0 -9 5 -9 10 0 6 7 10 16 10 8 0 12 -4 9 -10z
m35 -34 c-5 -5 -16 -6 -25 -3 -13 5 -13 10 -3 26 11 18 13 18 24 3 7 -10 9
-21 4 -26z m190 32 c0 -7 -5 -20 -10 -28 -8 -12 -10 -9 -10 13 0 15 5 27 10
27 6 0 10 -6 10 -12z m50 2 c0 -5 -2 -10 -4 -10 -3 0 -8 5 -11 10 -3 6 -1 10
4 10 6 0 11 -4 11 -10z m-450 -8 c0 -4 -5 -13 -12 -20 -7 -7 -16 -12 -20 -12
-13 0 -9 28 5 33 19 8 27 8 27 -1z m-310 -12 c0 -5 -9 -10 -20 -10 -11 0 -20
5 -20 10 0 6 9 10 20 10 11 0 20 -4 20 -10z m80 0 c0 -5 -4 -10 -10 -10 -5 0
-10 5 -10 10 0 6 5 10 10 10 6 0 10 -4 10 -10z m592 -19 c16 -14 26 -61 12
-61 -9 0 -34 28 -34 39 0 6 -8 7 -17 4 -12 -5 -15 -2 -10 10 4 10 1 17 -6 17
-8 0 -7 4 3 9 15 10 22 7 52 -18z m1168 3 c19 -7 31 -13 25 -13 -5 -1 -3 -6 5
-11 11 -7 6 -9 -20 -7 -20 2 -34 8 -32 15 1 7 -1 11 -5 11 -22 -4 -43 2 -39
10 4 5 0 12 -6 15 -20 9 33 -5 72 -20z m-1085 6 c-3 -5 -10 -10 -16 -10 -5 0
-9 5 -9 10 0 6 7 10 16 10 8 0 12 -4 9 -10z m-810 -10 c3 -5 2 -10 -4 -10 -5
0 -13 5 -16 10 -3 6 -2 10 4 10 5 0 13 -4 16 -10z m-1103 -18 c-17 -5 -15 -22
4 -22 8 0 12 -4 9 -10 -4 -6 -16 -4 -31 6 -18 13 -22 20 -13 30 6 7 18 10 27
7 10 -4 12 -8 4 -11z m1390 3 c0 -5 -5 -11 -11 -13 -6 -2 -11 4 -11 13 0 9 5
15 11 13 6 -2 11 -8 11 -13z m-196 -10 c19 -9 32 -11 38 -5 6 6 15 10 21 10 5
0 -3 -11 -19 -25 -29 -25 -21 -34 15 -15 13 7 19 7 19 0 0 -5 -6 -10 -14 -10
-7 0 -19 -7 -26 -15 -13 -15 -34 -8 -74 28 -20 17 -20 17 1 17 12 0 23 -4 25
-10 2 -6 9 -6 17 0 12 7 9 10 -12 15 -15 4 -27 11 -27 16 0 12 3 11 36 -6z
m304 4 c0 -5 -14 -9 -31 -9 -16 0 -28 4 -25 9 3 5 17 9 31 9 14 0 25 -4 25 -9z
m423 -3 c4 -10 1 -13 -9 -9 -7 3 -14 9 -14 14 0 14 17 10 23 -5z m1049 -11
c15 -14 37 -26 50 -26 22 -2 22 -2 2 -6 -12 -2 -38 7 -60 22 -49 33 -50 35
-33 35 8 0 26 -11 41 -25z m-72 6 c0 -5 15 -12 33 -16 28 -6 29 -8 12 -14 -17
-7 -16 -9 13 -16 18 -4 36 -14 39 -22 3 -8 14 -13 24 -10 10 3 18 2 17 -2 -2
-19 3 -41 10 -38 4 1 8 -2 10 -8 5 -17 -34 -17 -51 -1 -9 9 -24 16 -33 16 -17
0 -17 1 1 13 18 14 16 18 -19 31 -14 5 -17 2 -12 -9 6 -17 -3 -19 -38 -5 -22
8 -24 13 -17 34 8 21 7 23 -10 19 -22 -6 -24 2 -6 22 14 16 27 19 27 6z
m-1142 -13 c-6 -18 -28 -21 -28 -4 0 9 7 16 16 16 9 0 14 -5 12 -12z m1309 -2
c0 -8 -6 -12 -14 -9 -7 3 -10 9 -7 14 8 14 21 11 21 -5z m-1751 -9 c8 3 14 0
14 -7 0 -15 -33 -9 -36 8 -1 7 0 8 2 3 3 -6 12 -7 20 -4z m504 -7 c10 -10 15
-22 10 -25 -4 -3 -11 1 -13 7 -3 7 -6 3 -6 -9 -1 -15 3 -21 13 -17 8 3 17 0
21 -6 11 -18 2 -20 -35 -7 -31 11 -35 15 -32 45 4 37 14 40 42 12z m70 16 c0
-11 -19 -15 -25 -6 -3 5 1 10 9 10 9 0 16 -2 16 -4z m-10 -36 c0 -5 -7 -10
-15 -10 -8 0 -15 5 -15 10 0 6 7 10 15 10 8 0 15 -4 15 -10z m990 -5 c-10 -12
-8 -17 13 -26 14 -6 30 -22 37 -35 7 -13 17 -21 22 -18 4 3 26 -3 48 -12 31
-14 40 -23 40 -43 0 -24 1 -24 14 -5 8 10 18 16 22 12 4 -5 -6 -19 -22 -33
-16 -14 -21 -23 -11 -19 10 3 17 1 17 -5 0 -6 -7 -11 -15 -11 -8 0 -15 -4 -15
-9 0 -5 7 -8 16 -7 9 0 19 -6 21 -14 3 -11 2 -12 -5 -2 -6 9 -16 10 -33 4
l-24 -9 23 -7 c12 -4 22 -11 22 -15 0 -14 -29 -33 -40 -26 -18 11 -36 -19 -34
-58 1 -25 -3 -40 -12 -44 -8 -3 -11 -10 -8 -15 4 -6 0 -14 -7 -19 -11 -6 -8
-9 8 -9 35 0 37 -19 4 -49 -39 -37 -39 -45 0 -37 22 4 29 2 27 -6 -3 -7 -24
-16 -48 -20 -23 -4 -46 -10 -49 -14 -3 -4 12 -3 33 0 35 7 37 6 23 -8 -8 -9
-24 -17 -34 -17 -17 -1 -17 -2 0 -6 9 -2 15 -8 13 -12 -3 -4 13 -6 35 -4 24 2
39 -1 39 -8 0 -7 -10 -9 -25 -7 -14 3 -28 1 -31 -4 -3 -5 -14 -6 -24 -3 -10 3
-21 1 -25 -5 -3 -5 0 -10 7 -10 8 -1 5 -7 -7 -17 l-20 -16 20 8 c11 4 29 9 40
10 14 1 14 1 3 -2 -21 -5 -24 -19 -5 -26 9 -4 9 -7 -1 -15 -7 -5 -15 -21 -16
-36 -3 -25 -2 -26 15 -10 11 10 19 12 19 6 0 -7 -4 -12 -9 -12 -5 0 -12 -11
-15 -25 -4 -14 -13 -25 -21 -25 -8 0 -15 -4 -15 -9 0 -17 21 -23 36 -10 12 10
13 9 8 -5 -3 -9 -10 -16 -14 -16 -4 0 -11 -7 -14 -16 -3 -8 -2 -12 4 -9 6 3
10 0 11 -7 0 -7 2 -21 4 -30 2 -10 -1 -18 -7 -18 -5 0 -8 -6 -5 -12 2 -7 0
-21 -5 -30 -5 -10 -5 -18 0 -18 10 0 9 -116 -2 -149 -6 -16 -5 -21 3 -17 6 4
11 3 11 -2 0 -6 -7 -12 -15 -16 -8 -3 -15 -12 -15 -20 0 -9 -9 -24 -21 -35
-11 -10 -16 -22 -11 -25 6 -3 8 -15 5 -26 -5 -19 4 -25 34 -21 7 1 2 -10 -12
-25 -29 -32 -31 -49 -7 -64 12 -8 13 -13 4 -16 -6 -3 -10 -10 -6 -15 10 -18
24 -9 24 16 0 14 -4 25 -10 25 -5 0 -10 5 -10 10 0 20 18 9 28 -17 17 -44 27
-147 13 -139 -6 4 -11 2 -11 -4 0 -6 8 -10 18 -8 14 3 18 -7 22 -59 6 -68 14
-86 25 -51 8 24 22 38 42 38 9 0 11 -27 3 -37 -2 -2 -3 -11 -4 -20 -1 -10 -5
-24 -9 -30 -5 -8 -4 -13 2 -13 6 0 11 5 11 11 0 8 5 7 16 -2 10 -8 13 -21 9
-36 -3 -13 -1 -23 5 -23 5 0 10 9 10 20 0 11 7 20 15 20 8 0 15 -9 15 -20 0
-11 5 -20 11 -20 5 0 7 -4 4 -10 -3 -5 -1 -10 4 -10 12 0 13 -56 2 -104 -3
-17 -9 -28 -13 -25 -13 7 -38 -38 -32 -56 7 -18 -11 -35 -36 -34 -8 0 -5 4 8
9 12 5 22 14 22 20 0 20 -32 9 -59 -21 -22 -23 -35 -30 -57 -27 -29 3 -29 4
-26 61 2 38 -1 56 -8 52 -5 -3 -10 -1 -10 4 0 6 5 11 10 11 6 0 10 7 10 16 0
9 -7 14 -17 12 -12 -2 -17 -11 -15 -26 2 -16 -2 -22 -15 -22 -11 0 -37 -18
-58 -40 -21 -22 -44 -40 -51 -40 -7 0 -24 -14 -38 -31 -14 -17 -29 -28 -33
-26 -5 3 -24 -10 -43 -29 -32 -32 -59 -46 -45 -24 4 6 -4 6 -22 -1 -32 -12
-74 -4 -68 14 4 8 -10 12 -49 13 -75 2 -106 11 -107 32 -1 15 -2 15 -6 -1 -3
-13 -11 -17 -23 -14 -11 3 -21 0 -24 -7 -3 -6 -5 -2 -5 9 2 40 -1 47 -17 41
-9 -3 -12 -2 -9 5 4 6 -2 13 -13 16 -11 2 -25 16 -32 29 -8 13 -19 24 -27 24
-7 0 -13 7 -13 15 0 8 -9 19 -20 25 -11 6 -22 26 -26 47 -4 20 -17 46 -30 57
-13 12 -26 34 -28 51 -8 45 -27 85 -37 79 -5 -3 -9 -2 -8 3 1 4 -1 16 -5 26
-10 21 -41 24 -33 2 5 -11 1 -12 -19 -5 -37 15 -47 12 -41 -10 3 -14 -1 -21
-17 -27 -11 -4 -25 -6 -29 -5 -5 1 -5 -3 -1 -9 5 -9 2 -10 -10 -6 -9 4 -14 3
-11 -2 3 -5 0 -13 -6 -17 -13 -7 -31 15 -22 29 6 10 -28 37 -39 31 -5 -3 -8 1
-8 8 0 7 -11 0 -26 -15 -14 -16 -22 -32 -18 -40 4 -6 -10 5 -32 26 -21 20 -40
33 -42 27 -6 -18 -22 -11 -22 10 0 11 -4 20 -10 20 -5 0 -10 8 -10 18 0 10 -6
24 -12 31 -9 10 -9 12 -1 7 7 -4 13 4 16 21 4 26 4 26 6 -4 0 -18 5 -33 11
-33 5 0 7 6 4 14 -3 8 0 17 5 21 6 3 9 11 5 16 -3 6 2 19 11 29 17 19 13 60
-6 60 -5 0 -9 4 -9 8 0 9 80 39 92 35 4 -2 11 9 14 23 4 16 12 23 20 20 7 -3
16 -1 19 5 8 12 35 -15 35 -35 0 -13 8 -15 38 -10 20 3 43 7 50 9 6 2 12 0 12
-4 0 -5 -6 -12 -12 -14 -8 -3 -6 -6 5 -6 10 -1 17 6 17 18 0 13 6 18 18 16 9
-2 22 -4 27 -4 6 -1 3 -6 -5 -11 -10 -6 -11 -10 -2 -10 6 0 12 -7 12 -15 0 -8
5 -15 10 -15 6 0 10 12 10 26 0 20 3 24 13 16 7 -6 18 -7 26 -2 17 10 43 2 35
-11 -3 -5 2 -9 11 -9 9 0 13 -5 10 -10 -4 -7 -12 -7 -25 0 -33 17 -36 11 -5
-10 35 -23 55 -26 55 -6 0 8 7 17 16 20 14 5 15 4 5 -8 -18 -21 16 -26 53 -8
22 11 26 16 15 22 -7 5 -10 12 -6 17 5 4 11 3 15 -3 10 -15 68 -11 65 4 -4 16
8 15 33 -2 22 -16 37 -11 47 16 4 13 2 15 -10 11 -12 -5 -14 -2 -9 8 5 10 4 9
-6 -1 -7 -9 -21 -14 -31 -12 -10 2 -25 -2 -33 -9 -18 -15 -32 -3 -16 13 7 7
12 18 12 26 0 8 8 20 17 27 15 11 15 15 4 29 -11 13 -11 17 3 22 10 4 16 18
16 39 0 19 6 35 14 38 10 4 13 1 10 -7 -3 -8 -1 -17 5 -21 7 -4 11 6 11 28 0
20 7 40 17 48 11 10 14 10 9 2 -4 -7 -3 -13 2 -13 6 0 12 7 16 15 3 9 0 15 -9
15 -8 0 -15 5 -15 11 0 5 4 7 10 4 5 -3 18 -1 27 4 10 6 13 11 7 11 -6 0 -11
16 -12 36 -1 28 2 35 14 30 8 -3 12 -2 9 4 -3 6 -2 10 4 10 5 0 12 -6 15 -12
3 -7 4 -1 3 14 -4 27 24 51 31 28 5 -15 32 7 32 26 0 17 -12 18 -28 2 -7 -7
-12 -8 -12 -3 0 11 49 55 62 55 4 0 8 -4 8 -10 0 -5 4 -10 8 -10 4 0 6 16 4
35 -3 24 0 35 9 35 7 0 9 3 6 7 -4 3 -2 12 5 20 8 11 7 17 -8 28 -10 8 -16 15
-11 16 4 1 12 3 17 4 6 1 15 3 21 4 5 0 7 5 4 11 -8 13 27 0 40 -15 6 -7 17
-15 26 -18 13 -4 15 -1 12 14 -3 10 -12 19 -19 19 -8 0 -14 4 -14 10 0 5 -11
12 -25 16 -14 3 -25 8 -25 11 0 8 25 29 42 35 11 5 15 14 11 27 -3 13 2 24 15
32 11 7 18 19 15 26 -3 8 2 13 13 13 11 0 26 5 34 10 13 8 12 11 -5 24 -20 15
-20 15 2 16 13 0 23 -7 25 -17 3 -17 4 -17 11 0 4 12 1 19 -11 23 -49 16 -72
27 -72 35 0 14 16 11 30 -6 7 -8 22 -15 34 -15 20 1 20 1 -3 14 -17 9 -20 15
-10 18 9 3 13 20 12 56 -1 29 2 52 7 52 5 0 7 6 4 14 -3 7 2 16 12 20 13 5 14
9 3 22 -10 13 -10 17 2 25 12 7 12 9 0 9 -11 0 -10 4 3 19 16 18 16 20 -6 35
l-23 17 28 25 c33 28 40 29 57 9 14 -17 30 -20 30 -6 0 5 -9 13 -20 16 -25 8
-58 65 -38 65 10 0 10 2 -1 9 -9 6 -10 10 -2 16 7 4 18 1 26 -5 9 -8 15 -8 15
-2 0 6 -6 13 -12 16 -9 3 -8 9 6 20 10 8 15 20 11 26 -4 7 -1 16 6 21 20 13
23 11 9 -6z m-3027 -12 c-7 -2 -19 -2 -25 0 -7 3 -2 5 12 5 14 0 19 -2 13 -5z
m2974 -19 c-9 -9 -28 6 -21 18 4 6 10 6 17 -1 6 -6 8 -13 4 -17z m-2902 -14
c3 -5 -1 -10 -9 -10 -9 0 -16 5 -16 10 0 6 4 10 9 10 6 0 13 -4 16 -10z m1825
-20 c0 -13 -5 -18 -15 -14 -8 4 -15 12 -15 20 0 8 7 14 15 14 8 0 15 -9 15
-20z m-1905 -20 c-3 -5 -12 -10 -18 -10 -7 0 -6 4 3 10 19 12 23 12 15 0z
m3225 -20 c0 -5 -5 -10 -11 -10 -5 0 -7 5 -4 10 3 6 8 10 11 10 2 0 4 -4 4
-10z m-1310 -61 c0 -5 -4 -9 -10 -9 -5 0 -10 7 -10 16 0 8 5 12 10 9 6 -3 10
-10 10 -16z m-137 -34 c-3 -9 -8 -14 -10 -11 -3 3 -2 9 2 15 9 16 15 13 8 -4z
m1172 -35 c3 -5 1 -10 -4 -10 -6 0 -11 5 -11 10 0 6 2 10 4 10 3 0 8 -4 11
-10z m285 -30 c0 -5 -5 -10 -11 -10 -5 0 -7 5 -4 10 3 6 8 10 11 10 2 0 4 -4
4 -10z m-330 -30 c0 -5 -4 -10 -10 -10 -5 0 -10 5 -10 10 0 6 5 10 10 10 6 0
10 -4 10 -10z m290 -11 c0 -6 -7 -9 -15 -5 -8 3 -15 1 -15 -4 0 -6 -7 -10 -16
-10 -14 0 -14 3 -4 15 14 17 50 20 50 4z m-16 -43 c-7 -19 -30 -21 -40 -3 -4
6 -4 9 1 5 4 -4 14 0 22 8 18 18 26 13 17 -10z m22 -11 c-3 -8 -1 -15 4 -15 6
0 10 -5 10 -12 0 -8 -6 -7 -16 4 -9 9 -13 21 -10 27 10 16 19 13 12 -4z m-359
-41 c-3 -3 -12 -4 -19 -1 -8 3 -5 6 6 6 11 1 17 -2 13 -5z m-967 -14 c0 -5 -4
-10 -10 -10 -5 0 -10 5 -10 10 0 6 5 10 10 10 6 0 10 -4 10 -10z m920 -30 c0
-5 -4 -10 -10 -10 -5 0 -10 5 -10 10 0 6 5 10 10 10 6 0 10 -4 10 -10z m80 -5
c0 -8 -4 -15 -10 -15 -5 0 -10 7 -10 15 0 8 5 15 10 15 6 0 10 -7 10 -15z
m305 5 c3 -5 -1 -10 -9 -10 -9 0 -16 5 -16 10 0 6 4 10 9 10 6 0 13 -4 16 -10z
m-345 -49 c0 -6 -4 -13 -10 -16 -5 -3 -10 1 -10 9 0 9 5 16 10 16 6 0 10 -4
10 -9z m-2731 -66 c1 -5 -6 -2 -15 7 -10 9 -13 21 -8 29 5 9 9 8 15 -7 4 -10
8 -23 8 -29z m2771 20 c7 -9 10 -18 7 -22 -8 -7 -37 15 -37 28 0 14 16 11 30
-6z m-1135 -5 c3 -5 1 -10 -4 -10 -6 0 -11 5 -11 10 0 6 2 10 4 10 3 0 8 -4
11 -10z m1385 -30 c0 -5 -4 -10 -10 -10 -5 0 -10 5 -10 10 0 6 5 10 10 10 6 0
10 -4 10 -10z m-410 -80 c0 -5 -5 -10 -11 -10 -5 0 -7 5 -4 10 3 6 8 10 11 10
2 0 4 -4 4 -10z m-2570 -84 c0 -3 -4 -8 -10 -11 -5 -3 -10 -1 -10 4 0 6 5 11
10 11 6 0 10 -2 10 -4z m3790 -10 c0 -3 -4 -8 -10 -11 -5 -3 -10 -1 -10 4 0 6
5 11 10 11 6 0 10 -2 10 -4z m-3850 -16 c0 -5 -4 -10 -10 -10 -5 0 -10 5 -10
10 0 6 5 10 10 10 6 0 10 -4 10 -10z m3044 -9 c3 -5 -3 -11 -15 -14 -16 -4
-18 -3 -8 9 13 16 16 17 23 5z m-389 -20 c3 -5 0 -13 -6 -17 -7 -4 -9 -3 -5 4
3 5 0 13 -6 15 -9 4 -10 6 -1 6 6 1 14 -3 18 -8z m-15 -46 c0 -16 -9 -19 -34
-9 -25 9 -19 24 9 24 16 0 25 -6 25 -15z m1320 -15 c0 -5 -5 -10 -11 -10 -5 0
-7 5 -4 10 3 6 8 10 11 10 2 0 4 -4 4 -10z m-1343 -16 c-3 -3 -12 -4 -19 -1
-8 3 -5 6 6 6 11 1 17 -2 13 -5z m-1307 -144 c0 -4 -6 -10 -14 -13 -10 -4 -14
0 -13 12 1 18 27 18 27 1z m2830 6 c0 -2 -8 -10 -17 -17 -16 -13 -17 -12 -4 4
13 16 21 21 21 13z m-4028 -18 c-9 -9 -15 -9 -24 0 -9 9 -7 12 12 12 19 0 21
-3 12 -12z m15 -61 c7 -5 11 -12 8 -18 -4 -5 1 -9 10 -9 11 0 15 -5 11 -15 -3
-10 1 -15 11 -15 13 0 11 -4 -7 -20 -27 -23 -42 -26 -34 -7 3 8 -2 20 -11 27
-8 7 -15 19 -15 26 0 8 -7 11 -17 8 -17 -5 -17 -5 0 6 9 6 23 8 30 4 8 -6 8
-3 -1 8 -8 9 -20 14 -28 11 -8 -3 -14 0 -14 5 0 14 34 20 39 7 2 -5 10 -14 18
-18z m913 -7 c0 -5 -5 -10 -11 -10 -5 0 -7 5 -4 10 3 6 8 10 11 10 2 0 4 -4 4
-10z m-785 -30 c-3 -5 -13 -10 -21 -10 -8 0 -12 5 -9 10 3 6 13 10 21 10 8 0
12 -4 9 -10z m834 -3 c-7 -7 -29 -14 -48 -16 -19 -1 -38 -7 -42 -13 -4 -6 -18
-8 -35 -4 -37 10 -15 23 37 24 21 1 47 5 56 11 27 16 47 14 32 -2z m52 -17
c-13 -11 -29 -20 -37 -20 -23 0 -16 28 9 33 47 9 52 7 28 -13z m-1051 0 c0 -5
-4 -10 -10 -10 -5 0 -10 5 -10 10 0 6 5 10 10 10 6 0 10 -4 10 -10z m150 -28
c0 -5 -7 -9 -15 -9 -8 0 -15 4 -15 9 0 4 7 8 15 8 8 0 15 -4 15 -8z m840 -22
c0 -5 -5 -10 -11 -10 -5 0 -7 5 -4 10 3 6 8 10 11 10 2 0 4 -4 4 -10z m-30
-30 c0 -5 -5 -10 -11 -10 -5 0 -7 5 -4 10 3 6 8 10 11 10 2 0 4 -4 4 -10z
m-693 -32 c-3 -7 -5 -2 -5 12 0 14 2 19 5 13 2 -7 2 -19 0 -25z m599 6 c-5
-14 -9 -15 -19 -5 -9 9 -9 14 3 21 18 11 24 6 16 -16z m1354 6 c0 -5 -5 -10
-11 -10 -5 0 -7 5 -4 10 3 6 8 10 11 10 2 0 4 -4 4 -10z m-1400 -20 c0 -5 -4
-10 -10 -10 -5 0 -10 5 -10 10 0 6 5 10 10 10 6 0 10 -4 10 -10z m-426 -9 c3
-5 -1 -12 -10 -15 -22 -9 -24 -8 -24 9 0 16 25 21 34 6z m381 -1 c3 -5 -1 -10
-10 -10 -9 0 -13 5 -10 10 3 6 8 10 10 10 2 0 7 -4 10 -10z m929 -5 c-4 -8
-14 -15 -23 -15 -14 1 -13 3 3 15 25 19 27 19 20 0z m-1414 -15 c0 -15 6 -18
30 -15 34 4 43 -4 29 -25 -6 -11 -9 -12 -9 -2 0 7 -5 10 -10 7 -19 -12 -48 5
-53 30 -2 14 0 25 4 25 5 0 9 -9 9 -20z m40 16 c0 -3 -4 -8 -10 -11 -5 -3 -10
-1 -10 4 0 6 5 11 10 11 6 0 10 -2 10 -4z m463 -65 c7 1 23 1 36 0 24 -1 24
-1 5 -16 -18 -15 -18 -15 7 -9 30 6 48 -10 22 -20 -13 -5 -14 -9 -5 -15 9 -5
9 -14 0 -39 -13 -35 -29 -40 -48 -17 -7 8 -16 13 -20 10 -9 -6 -7 27 4 65 5
17 4 21 -2 11 -11 -15 -34 -6 -31 12 1 7 -1 20 -6 31 -5 12 -3 21 6 27 10 6
15 2 17 -17 2 -13 9 -24 15 -23z m944 15 c3 -19 -1 -23 -27 -24 -16 0 -32 4
-35 9 -4 5 1 9 9 9 8 0 20 9 26 21 13 24 23 19 27 -15z m313 24 c0 -4 -7 -7
-15 -6 -23 3 -26 12 -5 13 11 1 20 -2 20 -7z m0 -36 c0 -8 -5 -12 -10 -9 -6 4
-8 11 -5 16 9 14 15 11 15 -7z m-152 -6 c-2 -6 -12 -12 -22 -14 -14 -2 -15 0
-5 12 14 17 32 19 27 2z m-218 -17 c0 -16 -19 -23 -41 -16 -17 6 -19 9 -8 16
19 12 49 11 49 0z m-962 -52 c-2 -6 -8 -10 -13 -10 -5 0 -11 4 -13 10 -2 6 4
11 13 11 9 0 15 -5 13 -11z m-58 -19 c-6 -11 -15 -20 -20 -20 -16 0 -11 18 8
29 24 14 24 14 12 -9z m66 -25 c-19 -47 -19 -50 2 -27 21 24 21 24 38 4 9 -12
24 -18 32 -14 11 4 13 2 7 -8 -6 -10 -4 -12 8 -7 10 3 17 2 17 -2 0 -11 -30
-25 -47 -22 -18 3 -16 -18 2 -25 8 -4 15 -15 15 -26 0 -10 -4 -16 -10 -13 -5
3 -10 2 -10 -3 0 -12 29 -24 41 -16 13 8 11 -10 -3 -24 -7 -7 -9 -12 -5 -12 4
0 3 -9 -3 -20 -6 -11 -16 -18 -21 -14 -7 4 -6 -3 1 -16 10 -18 9 -21 -2 -18
-7 3 -14 14 -16 26 -2 14 -11 22 -22 22 -23 0 -52 -28 -44 -42 4 -7 9 -6 14 2
5 7 13 9 21 5 9 -6 10 -3 5 11 -5 14 -4 16 5 7 13 -13 3 -36 -13 -27 -7 5 -9
-2 -6 -20 3 -14 2 -26 -2 -26 -13 0 -41 38 -38 52 1 7 -1 13 -6 13 -6 0 -11
-11 -12 -24 -2 -13 -8 -29 -14 -35 -8 -8 -9 -4 -1 16 8 21 7 31 -4 42 -19 19
-9 52 11 35 10 -8 14 -8 14 0 0 6 -4 11 -10 11 -18 0 -11 20 8 21 9 0 12 3 5
5 -8 4 -10 16 -6 36 4 20 2 29 -4 25 -6 -4 -8 4 -5 20 4 23 3 25 -10 13 -8 -8
-13 -23 -10 -33 4 -17 2 -18 -16 -8 -23 12 -19 56 4 47 8 -3 14 1 14 9 0 8 7
15 15 15 15 0 19 11 15 39 -1 9 4 12 15 7 9 -3 13 -2 10 4 -3 6 1 10 10 10 11
0 15 -5 11 -15z m44 5 c0 -5 -2 -10 -4 -10 -3 0 -8 5 -11 10 -3 6 -1 10 4 10
6 0 11 -4 11 -10z m-183 -62 c-3 -7 -5 -2 -5 12 0 14 2 19 5 13 2 -7 2 -19 0
-25z m63 -118 c0 -5 -4 -10 -9 -10 -6 0 -13 5 -16 10 -3 6 1 10 9 10 9 0 16
-4 16 -10z m180 -70 c0 -5 -2 -10 -4 -10 -3 0 -8 5 -11 10 -3 6 -1 10 4 10 6
0 11 -4 11 -10z m-26 -37 c18 24 35 21 42 -8 3 -14 10 -25 16 -25 5 0 6 -5 2
-11 -4 -8 -9 -7 -14 2 -12 19 -50 22 -50 4 0 -23 -16 -18 -28 10 -17 36 -14
54 4 30 14 -19 16 -19 28 -2z m-164 -43 c0 -5 -4 -10 -10 -10 -5 0 -10 5 -10
10 0 6 5 10 10 10 6 0 10 -4 10 -10z m60 -5 c0 -8 0 -18 1 -22 0 -4 -4 -9 -9
-11 -5 -1 -9 9 -9 23 0 14 3 25 8 25 5 0 9 -7 9 -15z m128 -23 c-10 -2 -18 -8
-18 -13 0 -6 -4 -7 -10 -4 -24 15 10 40 35 26 6 -3 2 -7 -7 -9z m2296 -164
c-4 -6 0 -15 7 -20 10 -7 7 -8 -10 -4 -16 3 -29 -1 -37 -12 -7 -9 -15 -14 -19
-10 -9 9 46 69 57 62 4 -3 5 -10 2 -16z m-49 -86 c6 -4 16 -19 24 -34 11 -22
12 -30 2 -42 -7 -8 -10 -20 -6 -26 11 -18 -6 -33 -19 -15 -10 14 -13 11 -24
-19 -8 -20 -16 -36 -20 -36 -4 0 -20 -26 -37 -57 -34 -65 -43 -76 -68 -86 -13
-5 -20 0 -27 18 -12 32 -24 32 -38 0 -8 -17 -17 -23 -33 -20 -28 6 -38 15 -15
15 9 0 14 5 11 10 -8 13 -43 3 -63 -16 -11 -12 -17 -11 -36 1 -19 13 -25 28
-30 85 -5 51 -11 70 -22 70 -8 0 -14 4 -14 8 0 12 -53 8 -57 -4 -2 -7 3 -19
12 -27 24 -25 18 -30 -14 -11 -48 29 -26 94 33 97 14 1 26 7 26 12 0 6 16 17
35 24 19 7 35 16 35 21 0 6 43 8 98 6 73 -3 110 1 152 14 63 20 81 23 95 12z
m-908 -188 c-3 -3 -12 -4 -19 -1 -8 3 -5 6 6 6 11 1 17 -2 13 -5z m503 -15 c0
-11 -4 -17 -10 -14 -5 3 -10 13 -10 21 0 8 5 14 10 14 6 0 10 -9 10 -21z m-60
-9 c0 -5 -5 -10 -11 -10 -5 0 -7 5 -4 10 3 6 8 10 11 10 2 0 4 -4 4 -10z
m-455 -21 c12 -18 -3 -22 -20 -5 -14 14 -14 16 -1 16 8 0 18 -5 21 -11z m75
-30 c0 -5 -4 -9 -10 -9 -5 0 -10 7 -10 16 0 8 5 12 10 9 6 -3 10 -10 10 -16z
m-310 -9 c-19 -13 -30 -13 -30 0 0 6 10 10 23 10 18 0 19 -2 7 -10z m175 0 c3
-5 2 -10 -4 -10 -5 0 -13 5 -16 10 -3 6 -2 10 4 10 5 0 13 -4 16 -10z m795
-30 c0 -5 -2 -10 -4 -10 -3 0 -8 5 -11 10 -3 6 -1 10 4 10 6 0 11 -4 11 -10z
m-1393 -35 c0 -8 -4 -12 -9 -9 -5 3 -6 10 -3 15 9 13 12 11 12 -6z m69 -32
c-6 -6 -36 9 -36 18 0 5 9 4 20 -3 10 -7 18 -14 16 -15z m-76 -3 c0 -5 -5 -10
-11 -10 -5 0 -7 5 -4 10 3 6 8 10 11 10 2 0 4 -4 4 -10z m0 -50 c0 -5 -4 -10
-10 -10 -5 0 -10 5 -10 10 0 6 5 10 10 10 6 0 10 -4 10 -10z m136 -29 c-4 -6
-14 -7 -23 -4 -15 6 -14 7 3 13 22 9 29 6 20 -9z m114 -76 c0 -9 -9 -15 -22
-14 -17 1 -19 2 -5 6 9 2 17 9 17 14 0 5 2 9 5 9 3 0 5 -7 5 -15z m-25 -45
c-3 -5 -10 -10 -16 -10 -5 0 -9 5 -9 10 0 6 7 10 16 10 8 0 12 -4 9 -10z m95
0 c-18 -12 -30 -13 -30 -2 0 4 10 9 22 9 18 2 20 0 8 -7z m-40 -16 c0 -13 48
-13 69 0 10 6 12 4 7 -11 -5 -14 1 -21 24 -30 17 -6 30 -17 30 -23 0 -8 -7 -9
-17 -5 -23 10 -33 10 -62 0 -22 -7 -23 -5 -17 19 4 15 2 26 -4 26 -5 0 -10 -4
-10 -10 0 -5 -17 -10 -37 -9 -30 0 -34 2 -18 8 11 5 23 7 27 4 4 -2 5 3 2 11
-3 9 -15 16 -26 16 -10 0 -17 4 -13 9 8 14 45 9 45 -5z m195 6 c-3 -5 -11 -10
-16 -10 -6 0 -7 5 -4 10 3 6 11 10 16 10 6 0 7 -4 4 -10z m125 6 c0 -3 -4 -8
-10 -11 -5 -3 -10 -1 -10 4 0 6 5 11 10 11 6 0 10 -2 10 -4z m-190 -21 c0 -9
-9 -15 -22 -15 -21 0 -21 0 -2 15 24 18 24 18 24 0z m96 -22 c-10 -10 -19 5
-10 18 6 11 8 11 12 0 2 -7 1 -15 -2 -18z m-62 5 c4 6 14 8 22 5 13 -5 13 -7
2 -14 -22 -15 -48 -10 -48 9 0 13 2 14 9 3 6 -9 11 -10 15 -3z m-893 -50 c20
-15 43 -28 51 -28 8 0 24 -9 36 -20 12 -11 27 -20 34 -21 7 0 4 -5 -7 -10 -15
-7 -11 -8 17 -4 46 7 98 -17 98 -45 0 -22 -12 -25 -40 -10 -13 7 -21 7 -25 0
-3 -5 -11 -10 -17 -10 -7 0 -7 4 1 14 8 10 8 16 -3 25 -8 7 -16 8 -18 3 -4
-12 -58 -25 -58 -14 0 5 -12 14 -26 20 -14 7 -23 8 -19 2 13 -21 -6 -9 -42 27
-21 21 -47 42 -57 48 -26 14 -40 39 -33 58 5 14 11 15 39 5 18 -6 49 -24 69
-40z m299 -163 c0 -7 -7 -18 -15 -25 -8 -7 -15 -9 -15 -4 0 5 -3 19 -6 31 -5
18 -3 21 15 16 12 -3 21 -11 21 -18z m-290 5 c0 -5 -4 -10 -10 -10 -5 0 -10 5
-10 10 0 6 5 10 10 10 6 0 10 -4 10 -10z m613 -14 c3 -8 3 -17 -1 -21 -4 -3
-7 -12 -8 -18 -2 -26 -17 -57 -26 -57 -5 0 -6 -4 -3 -10 3 -5 -3 -10 -14 -10
-22 0 -28 14 -11 25 6 3 10 18 9 33 0 24 -1 25 -8 7 -5 -11 -7 -23 -5 -26 6
-11 -21 -18 -35 -10 -8 6 -8 15 0 39 16 48 89 82 102 48z m74 -5 c10 -10 26
-20 35 -22 16 -4 16 -7 -5 -31 -28 -34 -67 -47 -62 -21 1 10 -4 33 -11 52 -18
42 -18 41 6 41 10 0 27 -9 37 -19z m51 1 c5 -17 -25 -15 -31 2 -4 9 0 13 11
12 9 -2 18 -8 20 -14z m91 4 c18 -22 -1 -66 -28 -66 -17 0 -13 10 12 31 19 16
19 18 5 19 -10 0 -18 7 -18 15 0 19 14 19 29 1z m-421 -23 c-5 -25 -28 -28
-28 -4 0 12 6 21 16 21 9 0 14 -7 12 -17z m46 -10 c-2 -16 -6 -33 -9 -40 -2
-6 1 -14 8 -17 7 -2 3 -5 -8 -5 -16 -1 -20 5 -19 29 3 55 4 60 18 60 10 0 13
-8 10 -27z m-49 -43 c3 -5 1 -10 -4 -10 -6 0 -11 5 -11 10 0 6 2 10 4 10 3 0
8 -4 11 -10z"/>
<path d="M5773 7980 c-3 -11 -14 -20 -24 -20 -12 0 -16 5 -13 15 4 8 3 15 -1
15 -15 0 -45 -21 -45 -32 0 -6 -7 -20 -17 -30 -9 -11 -11 -18 -5 -18 7 0 12 5
12 10 0 6 11 10 24 10 13 0 26 6 29 13 3 9 9 9 30 -2 14 -8 24 -18 21 -23 -3
-4 6 -8 20 -8 28 0 35 17 11 26 -9 4 -15 19 -15 35 0 33 -19 39 -27 9z"/>
<path d="M5498 7773 c7 -3 16 -2 19 1 4 3 -2 6 -13 5 -11 0 -14 -3 -6 -6z"/>
<path d="M5475 7741 c-3 -6 -1 -11 4 -11 6 0 10 -5 9 -11 -2 -6 2 -13 8 -16 6
-2 10 6 9 19 -2 24 -19 35 -30 19z"/>
<path d="M5600 7739 c0 -5 11 -9 25 -9 14 0 25 2 25 4 0 2 -11 6 -25 8 -14 3
-25 1 -25 -3z"/>
<path d="M5492 7604 c-11 -12 -8 -14 13 -14 26 0 34 14 12 23 -6 2 -18 -2 -25
-9z"/>
<path d="M6056 7555 c-3 -8 -1 -15 3 -15 5 0 11 7 15 15 3 8 1 15 -3 15 -5 0
-11 -7 -15 -15z"/>
<path d="M5042 7525 c-11 -12 -10 -15 3 -15 8 0 15 7 15 15 0 18 -2 18 -18 0z"/>
<path d="M6050 7521 c0 -6 7 -14 15 -17 17 -7 21 -34 5 -34 -5 0 -10 -7 -10
-16 0 -11 6 -14 23 -9 12 4 26 11 32 16 5 5 17 9 27 9 12 0 18 7 18 21 0 17
-4 20 -24 15 -13 -3 -26 -2 -28 3 -5 15 -58 25 -58 12z"/>
<path d="M5045 7490 c-11 -5 -14 -9 -6 -9 8 -1 4 -8 -10 -21 l-24 -20 27 13
c15 6 29 20 32 29 2 10 3 18 3 17 -1 0 -11 -4 -22 -9z"/>
<path d="M5112 7474 c-16 -11 -19 -18 -12 -27 6 -7 17 -21 25 -32 13 -18 14
-18 15 -2 0 19 8 21 29 8 22 -14 60 7 54 30 -5 19 -33 27 -33 9 0 -5 -7 -10
-15 -10 -8 0 -15 9 -15 20 0 24 -18 26 -48 4z"/>
<path d="M5310 7482 c0 -14 11 -21 26 -15 8 3 11 9 8 14 -7 11 -34 12 -34 1z"/>
<path d="M5290 7435 c0 -9 6 -12 15 -9 8 4 15 7 15 9 0 2 -7 5 -15 9 -9 3 -15
0 -15 -9z"/>
<path d="M5402 7431 c-13 -3 -23 -9 -22 -14 1 -13 -14 -34 -29 -38 -9 -4 -5
-10 13 -23 27 -17 27 -17 17 3 -10 17 -7 22 24 37 48 23 46 48 -3 35z"/>
<path d="M6069 7413 c-6 -7 -8 -13 -3 -13 5 0 3 -4 -4 -9 -9 -5 -4 -8 15 -7
21 1 28 6 29 22 2 23 -20 28 -37 7z"/>
<path d="M4916 7365 c4 -8 7 -15 9 -15 2 0 5 7 9 15 3 9 0 15 -9 15 -9 0 -12
-6 -9 -15z"/>
<path d="M6460 7330 c11 -20 30 -28 30 -12 0 11 -22 32 -32 32 -5 0 -4 -9 2
-20z"/>
<path d="M5310 7336 c0 -2 7 -6 15 -10 8 -3 15 -1 15 4 0 6 -7 10 -15 10 -8 0
-15 -2 -15 -4z"/>
<path d="M5745 7310 c-4 -6 5 -10 20 -10 15 0 24 4 20 10 -3 6 -12 10 -20 10
-8 0 -17 -4 -20 -10z"/>
<path d="M6390 7299 c0 -5 11 -9 25 -9 14 0 25 2 25 4 0 2 -11 6 -25 8 -14 3
-25 1 -25 -3z"/>
<path d="M6560 7297 c0 -8 7 -18 16 -21 11 -4 14 -1 12 11 -4 21 -28 30 -28
10z"/>
<path d="M5667 7294 c-9 -10 4 -34 19 -34 8 0 14 4 14 9 0 12 -26 32 -33 25z"/>
<path d="M5015 7280 c3 -5 8 -10 11 -10 2 0 4 5 4 10 0 6 -5 10 -11 10 -5 0
-7 -4 -4 -10z"/>
<path d="M6454 7273 c0 -10 -5 -17 -12 -15 -8 1 -11 -2 -7 -8 3 -6 11 -7 17
-4 5 3 27 6 49 6 32 -1 39 3 39 19 0 16 -7 19 -44 19 -36 0 -44 -3 -42 -17z"/>
<path d="M5470 7276 c0 -2 7 -6 15 -10 8 -3 15 -1 15 4 0 6 -7 10 -15 10 -8 0
-15 -2 -15 -4z"/>
<path d="M4905 7250 c3 -5 1 -10 -4 -10 -6 0 -11 -4 -11 -10 0 -5 11 -10 25
-10 18 0 25 5 25 20 0 14 -7 20 -21 20 -11 0 -17 -4 -14 -10z"/>
<path d="M5925 7223 c2 -10 4 -22 4 -28 1 -5 9 -1 19 8 15 16 15 19 2 27 -22
14 -29 12 -25 -7z"/>
<path d="M5598 7223 c7 -3 16 -2 19 1 4 3 -2 6 -13 5 -11 0 -14 -3 -6 -6z"/>
<path d="M5670 7220 c0 -5 12 -10 28 -10 21 0 24 2 12 10 -20 13 -40 13 -40 0z"/>
<path d="M5815 7217 c-4 -10 -5 -21 -1 -24 10 -10 18 4 13 24 -4 17 -4 17 -12
0z"/>
<path d="M5662 7163 c2 -10 12 -18 25 -19 26 -1 22 11 -8 27 -18 9 -20 8 -17
-8z"/>
<path d="M5500 7110 c0 -5 5 -10 11 -10 5 0 7 5 4 10 -3 6 -8 10 -11 10 -2 0
-4 -4 -4 -10z"/>
<path d="M5575 7110 c-3 -5 -2 -10 4 -10 5 0 13 5 16 10 3 6 2 10 -4 10 -5 0
-13 -4 -16 -10z"/>
<path d="M5707 7106 c-4 -9 2 -16 16 -20 29 -7 31 -3 8 18 -16 14 -19 15 -24
2z"/>
<path d="M5625 7100 c3 -5 11 -10 16 -10 6 0 7 5 4 10 -3 6 -11 10 -16 10 -6
0 -7 -4 -4 -10z"/>
<path d="M5420 7070 c0 -5 5 -10 11 -10 5 0 7 5 4 10 -3 6 -8 10 -11 10 -2 0
-4 -4 -4 -10z"/>
<path d="M5660 7039 c0 -24 23 -21 28 4 2 10 -3 17 -12 17 -10 0 -16 -9 -16
-21z"/>
<path d="M5430 7010 c0 -5 12 -10 26 -10 14 0 23 4 19 10 -3 6 -15 10 -26 10
-10 0 -19 -4 -19 -10z"/>
<path d="M5250 6985 c0 -8 7 -15 16 -15 14 0 14 3 4 15 -7 8 -14 15 -16 15 -2
0 -4 -7 -4 -15z"/>
<path d="M5678 6983 c7 -3 16 -2 19 1 4 3 -2 6 -13 5 -11 0 -14 -3 -6 -6z"/>
<path d="M5730 6980 c0 -5 5 -10 10 -10 6 0 10 5 10 10 0 6 -4 10 -10 10 -5 0
-10 -4 -10 -10z"/>
<path d="M5835 6980 c-3 -5 3 -10 15 -10 12 0 18 5 15 10 -3 6 -10 10 -15 10
-5 0 -12 -4 -15 -10z"/>
<path d="M6025 6980 c-7 -11 18 -24 35 -18 6 2 1 9 -9 15 -13 8 -22 9 -26 3z"/>
<path d="M5610 6950 c0 -5 5 -10 10 -10 6 0 10 5 10 10 0 6 -4 10 -10 10 -5 0
-10 -4 -10 -10z"/>
<path d="M5662 6928 c2 -6 10 -14 16 -16 7 -2 10 2 6 12 -7 18 -28 22 -22 4z"/>
<path d="M5955 6932 c14 -15 40 -19 43 -7 1 6 -10 11 -25 13 -19 2 -25 0 -18
-6z"/>
<path d="M5468 6913 c7 -3 16 -2 19 1 4 3 -2 6 -13 5 -11 0 -14 -3 -6 -6z"/>
<path d="M5847 6913 c-12 -12 -7 -20 19 -32 35 -16 39 -9 11 17 -13 12 -27 19
-30 15z"/>
<path d="M5730 6906 c0 -2 7 -7 16 -10 8 -3 12 -2 9 4 -6 10 -25 14 -25 6z"/>
<path d="M5570 6866 c45 -25 70 -29 70 -12 0 9 -8 16 -17 17 -10 0 -31 3 -48
5 l-30 4 25 -14z"/>
<path d="M5817 6839 c7 -7 15 -10 18 -7 3 3 -2 9 -12 12 -14 6 -15 5 -6 -5z"/>
<path d="M5998 6823 c7 -3 16 -2 19 1 4 3 -2 6 -13 5 -11 0 -14 -3 -6 -6z"/>
<path d="M5305 6810 c-3 -5 1 -10 10 -10 9 0 13 5 10 10 -3 6 -8 10 -10 10 -2
0 -7 -4 -10 -10z"/>
<path d="M5888 6813 c7 -3 16 -2 19 1 4 3 -2 6 -13 5 -11 0 -14 -3 -6 -6z"/>
<path d="M5460 6800 c0 -5 9 -10 21 -10 11 0 17 5 14 10 -3 6 -13 10 -21 10
-8 0 -14 -4 -14 -10z"/>
<path d="M6078 6803 c7 -3 16 -2 19 1 4 3 -2 6 -13 5 -11 0 -14 -3 -6 -6z"/>
<path d="M5943 6795 c4 -5 14 -10 23 -11 8 -1 32 -11 53 -22 21 -11 58 -21 82
-22 63 -3 71 -1 64 10 -3 6 4 10 17 10 17 0 20 2 9 9 -9 6 -21 5 -31 -2 -16
-10 -104 3 -200 29 -14 4 -21 3 -17 -1z"/>
<path d="M5670 6780 c0 -5 12 -10 28 -10 21 0 24 2 12 10 -20 13 -40 13 -40 0z"/>
<path d="M5458 6763 c7 -3 16 -2 19 1 4 3 -2 6 -13 5 -11 0 -14 -3 -6 -6z"/>
<path d="M5490 6757 c0 -7 18 -18 40 -24 36 -9 39 -9 28 6 -26 33 -68 44 -68
18z"/>
<path d="M5610 6759 c0 -5 5 -7 10 -4 6 3 10 8 10 11 0 2 -4 4 -10 4 -5 0 -10
-5 -10 -11z"/>
<path d="M5286 6705 c21 -32 36 -32 21 0 -7 14 -18 25 -25 25 -9 0 -8 -7 4
-25z"/>
<path d="M5610 6715 c7 -8 19 -15 27 -15 13 0 13 3 3 15 -7 8 -19 15 -27 15
-13 0 -13 -3 -3 -15z"/>
<path d="M5820 6690 c0 -5 5 -10 11 -10 5 0 7 5 4 10 -3 6 -8 10 -11 10 -2 0
-4 -4 -4 -10z"/>
<path d="M6158 6693 c7 -3 16 -2 19 1 4 3 -2 6 -13 5 -11 0 -14 -3 -6 -6z"/>
<path d="M6105 6680 c4 -6 11 -8 16 -5 14 9 11 15 -7 15 -8 0 -12 -5 -9 -10z"/>
<path d="M5697 6666 c-6 -16 2 -20 63 -31 72 -14 110 -26 105 -34 -7 -12 39
-23 60 -15 14 6 12 10 -12 25 -15 11 -37 19 -48 19 -24 0 -131 33 -141 43 -11
11 -21 8 -27 -7z"/>
<path d="M6200 6635 c7 -8 24 -15 39 -15 l26 1 -25 14 c-35 20 -57 20 -40 0z"/>
<path d="M5488 6603 c7 -3 16 -2 19 1 4 3 -2 6 -13 5 -11 0 -14 -3 -6 -6z"/>
<path d="M5360 6581 c0 -6 11 -13 25 -17 14 -3 23 -10 20 -15 -5 -7 24 -29 38
-29 16 0 -8 37 -31 48 -46 23 -52 24 -52 13z"/>
<path d="M5658 6573 c6 -2 18 -2 25 0 6 3 1 5 -13 5 -14 0 -19 -2 -12 -5z"/>
<path d="M5701 6554 c0 -11 3 -14 6 -6 3 7 2 16 -1 19 -3 4 -6 -2 -5 -13z"/>
<path d="M5805 6561 c-6 -11 13 -26 22 -17 4 3 1 6 -6 6 -7 0 -9 5 -6 10 3 6
4 10 1 10 -3 0 -7 -4 -11 -9z"/>
<path d="M5630 6530 c0 -5 5 -10 11 -10 5 0 7 5 4 10 -3 6 -8 10 -11 10 -2 0
-4 -4 -4 -10z"/>
<path d="M5517 6524 c7 -3 10 -11 7 -18 -3 -8 5 -15 20 -18 17 -4 26 -1 26 8
0 8 -6 11 -15 7 -10 -3 -15 -1 -13 8 2 7 -6 14 -17 16 -11 1 -15 0 -8 -3z"/>
<path d="M5460 6505 c0 -8 7 -15 16 -15 8 0 13 4 10 9 -4 5 0 12 6 14 7 3 3 6
-9 6 -14 1 -23 -5 -23 -14z"/>
<path d="M5856 6442 c-3 -5 1 -9 9 -9 8 0 12 4 9 9 -3 4 -7 8 -9 8 -2 0 -6 -4
-9 -8z"/>
<path d="M5938 6417 c24 -7 36 -7 44 1 9 9 1 12 -32 11 l-45 -1 33 -11z"/>
<path d="M6696 7151 c-3 -4 6 -13 19 -19 20 -9 25 -9 25 2 0 8 -7 17 -16 20
-20 8 -22 8 -28 -3z"/>
<path d="M6250 6910 c0 -6 7 -10 15 -10 8 0 15 2 15 4 0 2 -7 6 -15 10 -8 3
-15 1 -15 -4z"/>
<path d="M4392 6248 c6 -18 28 -21 28 -4 0 9 -7 16 -16 16 -9 0 -14 -5 -12
-12z"/>
<path d="M4300 6230 c0 -5 7 -10 16 -10 8 0 12 5 9 10 -3 6 -10 10 -16 10 -5
0 -9 -4 -9 -10z"/>
<path d="M4555 6210 c3 -5 11 -10 16 -10 6 0 7 5 4 10 -3 6 -11 10 -16 10 -6
0 -7 -4 -4 -10z"/>
<path d="M4657 6179 c7 -7 15 -10 18 -7 3 3 -2 9 -12 12 -14 6 -15 5 -6 -5z"/>
<path d="M4220 6166 c0 -11 72 -45 85 -40 18 7 20 23 3 29 -25 7 -88 16 -88
11z"/>
<path d="M4630 6150 c0 -5 5 -10 11 -10 5 0 7 5 4 10 -3 6 -8 10 -11 10 -2 0
-4 -4 -4 -10z"/>
<path d="M4346 6125 c4 -8 8 -15 10 -15 2 0 4 7 4 15 0 8 -4 15 -10 15 -5 0
-7 -7 -4 -15z"/>
<path d="M4730 6136 c0 -2 7 -7 16 -10 8 -3 12 -2 9 4 -6 10 -25 14 -25 6z"/>
<path d="M4410 6126 c0 -2 7 -9 15 -16 12 -10 15 -10 15 4 0 9 -7 16 -15 16
-8 0 -15 -2 -15 -4z"/>
<path d="M4650 6090 c0 -6 7 -10 15 -10 8 0 15 2 15 4 0 2 -7 6 -15 10 -8 3
-15 1 -15 -4z"/>
<path d="M4976 6036 c3 -8 1 -17 -5 -21 -6 -3 -11 -11 -11 -17 0 -6 3 -9 6 -5
3 3 26 -1 51 -8 25 -8 43 -11 40 -8 -3 3 -2 16 3 29 9 22 8 23 -10 12 -16 -10
-24 -9 -49 10 -19 14 -28 17 -25 8z"/>
<path d="M4870 6014 c0 -8 5 -12 10 -9 6 3 10 10 10 16 0 5 -4 9 -10 9 -5 0
-10 -7 -10 -16z"/>
<path d="M4800 6016 c0 -9 30 -14 35 -6 4 6 -3 10 -14 10 -12 0 -21 -2 -21 -4z"/>
<path d="M4890 5960 c29 -23 48 -26 31 -6 -6 8 -22 16 -34 20 -21 5 -21 4 3
-14z"/>
<path d="M4965 5920 c3 -5 14 -10 23 -10 15 0 15 2 2 10 -20 13 -33 13 -25 0z"/>
<path d="M4535 5860 c-3 -5 -2 -10 4 -10 5 0 18 -3 28 -7 17 -6 17 -6 1 10
-19 20 -24 21 -33 7z"/>
<path d="M4485 5846 c-5 -11 -3 -21 6 -26 19 -12 21 -7 10 21 -8 22 -10 22
-16 5z"/>
<path d="M4980 5850 c0 -5 5 -10 11 -10 5 0 7 5 4 10 -3 6 -8 10 -11 10 -2 0
-4 -4 -4 -10z"/>
<path d="M5090 5853 c1 -16 52 -45 61 -36 6 6 4 15 -6 23 -8 7 -15 9 -15 6 0
-4 -9 -2 -20 4 -11 6 -20 7 -20 3z"/>
<path d="M4536 5798 c7 -18 84 -70 84 -57 0 5 4 8 9 4 5 -3 12 -1 15 4 3 5 -8
14 -24 20 -17 5 -30 8 -30 5 0 -3 -10 4 -22 16 -24 23 -40 26 -32 8z"/>
<path d="M5063 5803 c-7 -2 -13 -10 -13 -15 0 -6 3 -9 6 -5 4 3 19 0 35 -9 20
-10 29 -11 29 -3 0 6 7 9 14 6 10 -4 13 -1 9 9 -3 7 -13 14 -23 14 -10 0 -24
2 -32 4 -7 3 -19 2 -25 -1z"/>
<path d="M4985 5780 c3 -5 14 -10 23 -10 15 0 15 2 2 10 -20 13 -33 13 -25 0z"/>
<path d="M4685 5750 c3 -5 11 -10 16 -10 6 0 7 5 4 10 -3 6 -11 10 -16 10 -6
0 -7 -4 -4 -10z"/>
<path d="M4745 5730 c3 -5 12 -7 20 -3 21 7 19 13 -6 13 -11 0 -18 -4 -14 -10z"/>
<path d="M5046 5624 c-4 -10 -1 -21 6 -26 23 -14 29 -9 17 15 -16 30 -16 30
-23 11z"/>
<path d="M4975 5590 c3 -5 11 -10 16 -10 6 0 7 5 4 10 -3 6 -11 10 -16 10 -6
0 -7 -4 -4 -10z"/>
<path d="M4892 5577 c7 -7 22 -16 33 -20 17 -6 17 -4 -4 13 -26 22 -50 28 -29
7z"/>
<path d="M4965 5540 c3 -5 11 -10 16 -10 5 0 19 -9 31 -20 12 -11 30 -20 41
-20 33 0 13 22 -38 41 -58 22 -58 22 -50 9z"/>
<path d="M4946 5465 c4 -8 15 -15 25 -15 12 0 16 5 13 15 -4 8 -15 15 -25 15
-12 0 -16 -5 -13 -15z"/>
<path d="M5045 5410 c-3 -5 1 -10 10 -10 9 0 13 5 10 10 -3 6 -8 10 -10 10 -2
0 -7 -4 -10 -10z"/>
<path d="M4705 5250 c3 -5 8 -10 11 -10 2 0 4 5 4 10 0 6 -5 10 -11 10 -5 0
-7 -4 -4 -10z"/>
<path d="M4898 5191 c-14 -5 -12 -9 12 -23 17 -9 30 -13 30 -8 0 6 -4 10 -9
10 -5 0 -11 6 -13 14 -2 8 -10 11 -20 7z"/>
<path d="M4815 5180 c-3 -5 1 -10 9 -10 9 0 16 5 16 10 0 6 -4 10 -9 10 -6 0
-13 -4 -16 -10z"/>
<path d="M1755 4940 c-3 -6 1 -13 10 -16 21 -9 26 -2 10 13 -9 8 -16 9 -20 3z"/>
<path d="M1846 4887 c3 -10 9 -15 12 -12 3 3 0 11 -7 18 -10 9 -11 8 -5 -6z"/>
<path d="M1800 4846 c0 -2 7 -7 16 -10 8 -3 12 -2 9 4 -6 10 -25 14 -25 6z"/>
<path d="M1830 4770 c0 -5 7 -7 15 -4 8 4 15 8 15 10 0 2 -7 4 -15 4 -8 0 -15
-4 -15 -10z"/>
<path d="M1685 4730 c-3 -5 -1 -10 4 -10 6 0 11 5 11 10 0 6 -2 10 -4 10 -3 0
-8 -4 -11 -10z"/>
<path d="M1676 4670 c-19 -6 -19 -7 -1 -14 10 -3 22 -3 28 3 12 12 -4 20 -27
11z"/>
<path d="M1985 4660 c-3 -5 -1 -10 4 -10 6 0 11 5 11 10 0 6 -2 10 -4 10 -3 0
-8 -4 -11 -10z"/>
<path d="M1670 4616 c0 -8 6 -16 13 -19 8 -3 14 1 14 9 0 7 -6 15 -14 18 -7 3
-13 -1 -13 -8z"/>
<path d="M1993 4583 c18 -5 23 -18 10 -26 -5 -2 -3 -3 3 -1 6 1 17 -3 23 -9 8
-8 11 -6 11 7 0 9 -4 15 -9 12 -5 -3 -11 1 -15 9 -3 8 -13 14 -23 14 -17 -1
-17 -2 0 -6z"/>
<path d="M1926 4554 c-5 -12 -10 -14 -19 -5 -10 8 -14 7 -14 -4 0 -8 8 -15 17
-15 21 0 45 26 32 34 -6 3 -13 -1 -16 -10z"/>
<path d="M1741 4454 c0 -11 3 -14 6 -6 3 7 2 16 -1 19 -3 4 -6 -2 -5 -13z"/>
<path d="M2120 4381 c0 -5 -7 -11 -15 -13 -10 -2 -8 -6 8 -14 20 -9 23 -7 25
13 1 13 -3 23 -8 23 -6 0 -10 -4 -10 -9z"/>
<path d="M2168 4343 c7 -3 16 -2 19 1 4 3 -2 6 -13 5 -11 0 -14 -3 -6 -6z"/>
<path d="M2150 4320 c-8 -6 -10 -10 -5 -10 6 0 20 -3 33 -6 14 -4 22 -2 22 7
0 7 -3 9 -7 6 -3 -4 -11 -3 -17 3 -7 5 -17 5 -26 0z"/>
<path d="M2308 4200 c9 -16 24 -30 32 -29 10 0 11 2 2 6 -6 2 -10 9 -6 14 3 5
-2 12 -10 15 -9 3 -13 10 -10 15 3 5 -2 9 -10 9 -13 0 -13 -4 2 -30z"/>
<path d="M2393 4153 c9 -2 23 -2 30 0 6 3 -1 5 -18 5 -16 0 -22 -2 -12 -5z"/>
<path d="M2558 4148 c5 -5 16 -8 23 -6 8 3 3 7 -10 11 -17 4 -21 3 -13 -5z"/>
<path d="M2595 4020 c-3 -6 1 -7 9 -4 18 7 21 14 7 14 -6 0 -13 -4 -16 -10z"/>
<path d="M1840 3990 c20 -13 43 -13 35 0 -3 6 -16 10 -28 10 -18 0 -19 -2 -7
-10z"/>
<path d="M2575 3990 c3 -5 8 -10 11 -10 2 0 4 5 4 10 0 6 -5 10 -11 10 -5 0
-7 -4 -4 -10z"/>
<path d="M2605 3950 c3 -5 16 -10 28 -10 18 0 19 2 7 10 -20 13 -43 13 -35 0z"/>
<path d="M2655 3920 c-28 -7 -28 -8 -5 -9 14 0 32 4 40 9 17 11 8 11 -35 0z"/>
<path d="M2780 3924 c1 -19 29 -45 58 -53 25 -8 30 -6 25 5 -3 8 -14 14 -25
14 -12 0 -29 10 -39 22 -11 11 -19 17 -19 12z"/>
<path d="M3380 3910 c-9 -6 -10 -10 -3 -10 6 0 15 -9 18 -20 8 -25 20 -26 22
-1 2 26 -18 43 -37 31z"/>
<path d="M2758 3893 c7 -3 16 -2 19 1 4 3 -2 6 -13 5 -11 0 -14 -3 -6 -6z"/>
<path d="M2878 3893 c7 -3 16 -2 19 1 4 3 -2 6 -13 5 -11 0 -14 -3 -6 -6z"/>
<path d="M3440 3881 c0 -5 6 -14 14 -20 11 -9 15 -8 20 5 9 23 8 24 -14 24
-11 0 -20 -4 -20 -9z"/>
<path d="M2916 3858 c21 -30 44 -37 40 -13 -3 19 -16 32 -16 15 0 -9 -7 -7
-22 6 l-22 19 20 -27z"/>
<path d="M3253 3866 c0 -8 8 -11 19 -8 18 4 27 -21 11 -31 -5 -2 -3 -3 3 -1 6
1 17 -3 24 -9 8 -9 8 -3 -2 18 -7 17 -17 33 -23 37 -16 12 -32 9 -32 -6z"/>
<path d="M3335 3860 c4 -7 2 -16 -6 -21 -11 -7 -10 -9 4 -9 19 0 23 25 5 36
-7 5 -8 3 -3 -6z"/>
<path d="M3360 3840 c0 -28 2 -30 21 -20 20 11 20 12 3 31 -23 25 -24 24 -24
-11z"/>
<path d="M3095 3849 c7 -11 44 -18 50 -9 3 4 -8 10 -25 12 -16 2 -27 1 -25 -3z"/>
<path d="M3040 3816 c0 -2 7 -7 16 -10 8 -3 12 -2 9 4 -6 10 -25 14 -25 6z"/>
<path d="M3213 3813 c9 -2 23 -2 30 0 6 3 -1 5 -18 5 -16 0 -22 -2 -12 -5z"/>
<path d="M3383 3780 l-11 -30 29 27 c34 33 34 33 11 33 -10 0 -22 -12 -29 -30z"/>
<path d="M3440 3790 c0 -5 5 -10 11 -10 5 0 7 5 4 10 -3 6 -8 10 -11 10 -2 0
-4 -4 -4 -10z"/>
<path d="M2841 3777 c2 -1 13 -9 24 -17 19 -14 19 -14 6 3 -7 9 -18 17 -24 17
-6 0 -8 -1 -6 -3z"/>
<path d="M3050 3746 c0 -2 7 -7 16 -10 8 -3 12 -2 9 4 -6 10 -25 14 -25 6z"/>
<path d="M3230 3719 c0 -5 5 -7 10 -4 6 3 10 8 10 11 0 2 -4 4 -10 4 -5 0 -10
-5 -10 -11z"/>
<path d="M3280 3720 c0 -5 -8 -10 -17 -10 -15 0 -16 -2 -3 -10 8 -5 16 -5 18
-1 2 5 22 7 45 4 28 -3 38 -1 28 5 -7 5 -22 7 -32 5 -10 -3 -19 0 -19 6 0 6
-4 11 -10 11 -5 0 -10 -4 -10 -10z"/>
<path d="M1900 3710 c20 -13 33 -13 25 0 -3 6 -14 10 -23 10 -15 0 -15 -2 -2
-10z"/>
<path d="M3170 3693 c8 -4 20 -12 25 -19 6 -8 17 -9 30 -4 19 8 19 9 -2 9 -12
1 -25 6 -28 11 -3 6 -14 10 -23 9 -14 0 -14 -2 -2 -6z"/>
<path d="M3186 3594 c-11 -28 -7 -34 18 -24 13 5 27 6 30 3 3 -4 6 -1 6 5 0
10 -30 32 -43 32 -3 0 -8 -7 -11 -16z"/>
<path d="M3406 3593 c-6 -14 -5 -15 5 -6 7 7 10 15 7 18 -3 3 -9 -2 -12 -12z"/>
<path d="M3305 3590 c-3 -5 -1 -10 4 -10 6 0 11 5 11 10 0 6 -2 10 -4 10 -3 0
-8 -4 -11 -10z"/>
<path d="M3211 3560 c-9 -5 -4 -7 13 -7 29 0 32 2 13 10 -8 3 -20 2 -26 -3z"/>
<path d="M3139 3524 c-12 -15 -1 -24 28 -24 14 0 21 4 18 10 -3 6 4 10 16 10
12 0 19 3 15 8 -12 11 -66 8 -77 -4z"/>
<path d="M1730 3490 c0 -5 5 -10 10 -10 6 0 10 5 10 10 0 6 -4 10 -10 10 -5 0
-10 -4 -10 -10z"/>
<path d="M3305 3440 c3 -5 8 -10 11 -10 2 0 4 5 4 10 0 6 -5 10 -11 10 -5 0
-7 -4 -4 -10z"/>
<path d="M3278 3423 c7 -3 16 -2 19 1 4 3 -2 6 -13 5 -11 0 -14 -3 -6 -6z"/>
<path d="M3330 3420 c0 -5 5 -10 10 -10 6 0 10 5 10 10 0 6 -4 10 -10 10 -5 0
-10 -4 -10 -10z"/>
<path d="M3278 3373 c6 -2 18 -2 25 0 6 3 1 5 -13 5 -14 0 -19 -2 -12 -5z"/>
<path d="M3198 3173 c7 -3 16 -2 19 1 4 3 -2 6 -13 5 -11 0 -14 -3 -6 -6z"/>
<path d="M3076 3057 c3 -10 9 -15 12 -12 3 3 0 11 -7 18 -10 9 -11 8 -5 -6z"/>
<path d="M1910 2950 c-8 -5 -10 -10 -5 -10 6 0 17 5 25 10 8 5 11 10 5 10 -5
0 -17 -5 -25 -10z"/>
<path d="M1860 2901 c0 -6 4 -12 8 -15 5 -3 9 1 9 9 0 8 -4 15 -9 15 -4 0 -8
-4 -8 -9z"/>
<path d="M1995 2871 c-3 -5 -1 -12 5 -16 5 -3 10 1 10 9 0 18 -6 21 -15 7z"/>
<path d="M2950 2860 c0 -5 5 -10 10 -10 6 0 10 5 10 10 0 6 -4 10 -10 10 -5 0
-10 -4 -10 -10z"/>
<path d="M1948 2843 c7 -3 16 -2 19 1 4 3 -2 6 -13 5 -11 0 -14 -3 -6 -6z"/>
<path d="M2120 2820 c-9 -6 -10 -10 -3 -10 6 0 15 5 18 10 8 12 4 12 -15 0z"/>
<path d="M2354 2748 c-3 -5 -9 -6 -14 -3 -5 3 -11 1 -15 -5 -3 -5 -12 -10 -18
-10 -7 0 -6 4 3 10 13 8 12 10 -3 10 -24 0 -33 -28 -15 -47 12 -12 20 -12 36
-4 11 6 37 12 56 13 26 2 36 8 36 19 0 18 -57 32 -66 17z"/>
<path d="M2500 2680 c0 -5 5 -10 10 -10 6 0 10 5 10 10 0 6 -4 10 -10 10 -5 0
-10 -4 -10 -10z"/>
<path d="M4640 3681 c0 -6 4 -13 10 -16 6 -3 7 1 4 9 -7 18 -14 21 -14 7z"/>
<path d="M4630 3595 c0 -8 5 -15 11 -15 5 0 8 4 5 9 -4 5 0 12 6 14 8 3 6 6
-4 6 -10 1 -18 -6 -18 -14z"/>
<path d="M4620 3520 c0 -11 48 -25 57 -16 4 3 -1 6 -10 6 -9 0 -17 5 -17 10 0
6 -7 10 -15 10 -8 0 -15 -4 -15 -10z"/>
<path d="M4730 3495 c-10 -12 -9 -15 7 -15 11 0 20 7 20 15 0 8 -4 15 -7 15
-4 0 -13 -7 -20 -15z"/>
<path d="M4630 3480 c0 -5 5 -10 11 -10 5 0 7 5 4 10 -3 6 -8 10 -11 10 -2 0
-4 -4 -4 -10z"/>
<path d="M4660 3440 c0 -15 7 -20 24 -20 35 0 40 15 10 29 -33 15 -34 14 -34
-9z"/>
<path d="M4604 3385 c10 -8 23 -12 28 -9 13 8 5 14 -23 19 -23 4 -23 4 -5 -10z"/>
<path d="M4665 3365 l-30 -14 31 -1 c19 0 34 6 38 15 6 18 1 18 -39 0z"/>
<path d="M4590 3280 c8 -5 20 -10 25 -10 6 0 3 5 -5 10 -8 5 -19 10 -25 10 -5
0 -3 -5 5 -10z"/>
<path d="M4700 3260 c0 -5 7 -7 15 -4 8 4 15 8 15 10 0 2 -7 4 -15 4 -8 0 -15
-4 -15 -10z"/>
<path d="M4510 3196 c0 -2 9 -6 20 -9 11 -3 18 -1 14 4 -5 9 -34 13 -34 5z"/>
<path d="M4710 3170 c-9 -6 -10 -10 -3 -10 6 0 15 5 18 10 8 12 4 12 -15 0z"/>
<path d="M4430 3091 c0 -6 5 -11 11 -11 5 0 8 -4 4 -9 -3 -5 0 -13 6 -16 7 -5
9 1 7 16 -3 22 -28 40 -28 20z"/>
<path d="M4679 3037 c-9 -7 -14 -18 -11 -25 3 -11 0 -12 -18 -2 -18 10 -21 9
-18 -2 3 -7 11 -13 19 -13 14 0 20 -31 10 -50 -3 -6 2 -2 12 9 10 10 16 25 13
32 -3 7 4 20 14 29 30 27 11 47 -21 22z"/>
<path d="M4340 2795 c0 -8 5 -15 10 -15 6 0 10 7 10 15 0 8 -4 15 -10 15 -5 0
-10 -7 -10 -15z"/>
<path d="M4270 2729 c0 -5 5 -7 10 -4 6 3 10 8 10 11 0 2 -4 4 -10 4 -5 0 -10
-5 -10 -11z"/>
<path d="M4231 2711 c-8 -5 -9 -11 -3 -15 5 -3 12 1 16 9 6 17 6 18 -13 6z"/>
<path d="M4245 2637 c-4 -10 -5 -21 -1 -24 10 -10 18 4 13 24 -4 17 -4 17 -12
0z"/>
<path d="M3635 2500 c-3 -5 -1 -10 4 -10 6 0 11 5 11 10 0 6 -2 10 -4 10 -3 0
-8 -4 -11 -10z"/>
<path d="M4064 2443 c-11 -12 -13 -18 -5 -21 13 -4 41 16 41 29 0 14 -17 10
-36 -8z"/>
<path d="M4037 2393 c-4 -3 -7 -11 -7 -17 0 -6 5 -5 12 2 6 6 9 14 7 17 -3 3
-9 2 -12 -2z"/>
<path d="M3836 2381 c-4 -5 -2 -12 3 -15 5 -4 12 -2 15 3 4 5 2 12 -3 15 -5 4
-12 2 -15 -3z"/>
<path d="M3940 2297 c0 -18 5 -27 15 -27 13 0 14 4 4 23 -17 33 -19 33 -19 4z"/>
<path d="M3814 2296 c-18 -14 -18 -15 9 -21 27 -7 57 7 57 26 0 14 -44 10 -66
-5z m41 -6 c-3 -5 -13 -10 -21 -10 -8 0 -12 5 -9 10 3 6 13 10 21 10 8 0 12
-4 9 -10z"/>
<path d="M4572 2245 c0 -16 2 -22 5 -12 2 9 2 23 0 30 -3 6 -5 -1 -5 -18z"/>
<path d="M3550 2239 c0 -5 5 -7 10 -4 6 3 10 8 10 11 0 2 -4 4 -10 4 -5 0 -10
-5 -10 -11z"/>
<path d="M4820 2105 c0 -8 5 -15 10 -15 6 0 10 7 10 15 0 8 -4 15 -10 15 -5 0
-10 -7 -10 -15z"/>
<path d="M4710 2051 c0 -5 7 -11 15 -15 8 -3 15 -1 15 3 0 5 -7 11 -15 15 -8
3 -15 1 -15 -3z"/>
<path d="M2655 2421 c-3 -5 -1 -12 5 -16 5 -3 10 1 10 9 0 18 -6 21 -15 7z"/>
<path d="M2523 2339 c4 -13 7 -27 7 -31 0 -5 4 -8 8 -8 13 0 6 54 -8 58 -9 3
-11 -2 -7 -19z"/>
<path d="M2575 2290 c3 -5 8 -10 11 -10 2 0 4 5 4 10 0 6 -5 10 -11 10 -5 0
-7 -4 -4 -10z"/>
<path d="M2587 2234 c6 -16 19 -18 27 -5 3 5 -3 11 -13 14 -14 3 -18 1 -14 -9z"/>
<path d="M4576 1615 c4 -8 7 -15 9 -15 2 0 5 7 9 15 3 9 0 15 -9 15 -9 0 -12
-6 -9 -15z"/>
<path d="M4607 1588 c-3 -23 -13 -48 -22 -55 -30 -21 -12 -32 28 -16 28 11 37
21 37 38 0 13 -5 27 -10 30 -6 4 -9 14 -8 22 2 9 -2 18 -8 20 -7 2 -14 -14
-17 -39z"/>
<path d="M4557 1548 c-5 -21 -5 -21 7 -6 7 10 16 15 19 11 4 -3 7 -1 7 5 0 21
-28 12 -33 -10z"/>
<path d="M4680 1535 c-7 -8 -8 -15 -2 -15 5 0 15 7 22 15 7 8 8 15 2 15 -5 0
-15 -7 -22 -15z"/>
</g>
</svg>
