<?xml version="1.0" standalone="no"?>
<!DOCTYPE svg PUBLIC "-//W3C//DTD SVG 20010904//EN"
 "http://www.w3.org/TR/2001/REC-SVG-20010904/DTD/svg10.dtd">
<svg version="1.0" xmlns="http://www.w3.org/2000/svg"
 width="700.000000pt" height="700.000000pt" viewBox="0 0 700.000000 700.000000"
 preserveAspectRatio="xMidYMid meet">
<metadata>
Created by potrace 1.11, written by Peter Selinger 2001-2013
</metadata>
<g transform="translate(0.000000,700.000000) scale(0.100000,-0.100000)"
fill="#000000" stroke="none">
<path d="M3369 6996 c-2 -2 -24 -6 -49 -10 -90 -12 -117 -18 -210 -46 -202
-62 -381 -171 -535 -325 -179 -178 -294 -382 -350 -618 -51 -221 -50 -411 5
-629 22 -87 24 -108 13 -112 -7 -3 -279 -5 -603 -5 -571 1 -591 1 -600 20 -6
10 -8 19 -6 19 3 0 -1 18 -9 40 -8 22 -12 40 -10 40 2 0 -1 15 -6 33 -6 17
-12 39 -14 47 -1 8 -47 188 -100 400 -53 212 -98 394 -101 405 -2 11 -35 146
-74 300 -38 153 -70 280 -70 281 0 1 -26 -5 -57 -13 -32 -8 -65 -16 -73 -18
-118 -25 -285 -76 -287 -87 -2 -7 104 -438 235 -958 l237 -945 552 0 552 0
-17 -25 c-147 -217 -217 -346 -295 -541 -64 -158 -123 -370 -151 -540 -5 -33
-19 -145 -25 -196 -1 -10 -140 -13 -661 -13 l-660 0 0 -219 0 -218 660 1 659
1 5 -35 c3 -19 8 -59 11 -89 13 -125 69 -363 118 -506 35 -100 79 -208 88
-220 5 -5 9 -13 9 -17 0 -4 -190 -8 -423 -8 l-423 0 -104 -418 c-58 -229 -105
-421 -106 -427 -2 -5 -61 -245 -133 -531 -72 -287 -131 -526 -131 -532 0 -6
21 -15 48 -21 26 -6 55 -14 64 -16 10 -3 26 -7 35 -9 10 -3 47 -12 83 -21 36
-9 76 -18 90 -21 14 -2 40 -10 59 -16 23 -7 35 -7 40 0 3 6 94 362 201 791
l195 781 142 1 c182 1 194 1 431 -1 l197 0 69 -85 c321 -394 788 -672 1263
-754 35 -6 75 -14 90 -17 57 -11 391 -14 478 -4 230 28 471 98 666 195 63 31
123 62 134 68 34 20 158 99 169 108 6 5 47 36 91 70 93 72 289 266 359 357
l49 62 156 1 c369 1 606 -2 613 -9 5 -5 132 -499 163 -632 1 -8 20 -80 40
-160 20 -80 38 -152 40 -160 2 -8 20 -80 40 -160 20 -80 38 -152 40 -160 2 -8
11 -44 20 -80 9 -36 18 -69 19 -75 20 -93 28 -122 35 -133 6 -11 50 -3 212 38
112 29 206 54 208 56 2 2 -104 433 -235 959 l-239 955 -424 0 c-335 0 -422 3
-418 13 95 209 149 388 201 662 6 30 19 147 20 173 0 12 5 22 11 23 5 0 304 1
663 1 l652 0 0 219 0 219 -660 0 c-363 0 -660 1 -661 3 0 1 -2 22 -5 47 -23
211 -81 461 -150 648 -70 189 -242 509 -315 588 -15 16 -17 23 -7 26 7 2 256
4 553 3 l540 0 102 405 c57 223 105 416 108 430 3 14 65 262 138 553 73 290
131 527 129 527 -1 0 -64 16 -140 36 -75 20 -155 40 -177 45 -22 4 -55 13 -72
18 -18 5 -33 9 -33 8 0 -1 -70 -281 -155 -622 -86 -341 -157 -629 -160 -640
-2 -11 -21 -87 -43 -170 l-38 -150 -599 -2 c-393 -1 -601 1 -606 8 -3 5 4 45
17 87 12 43 25 102 29 132 4 30 9 66 11 80 5 35 5 206 0 260 -41 416 -279 785
-649 1004 -43 25 -83 46 -88 46 -5 0 -20 6 -32 14 -12 8 -63 29 -114 46 -82
27 -132 40 -228 56 -35 6 -321 15 -326 10z"/>
</g>
</svg>
